<?xml version="1.0" encoding="utf-8"?>
<!-- Generator: Adobe Illustrator 27.6.1, SVG Export Plug-In . SVG Version: 6.00 Build 0)  -->
<svg version="1.1" xmlns="http://www.w3.org/2000/svg" xmlns:xlink="http://www.w3.org/1999/xlink" x="0px" y="0px"
	 viewBox="0 0 331.1 233.6" style="enable-background:new 0 0 331.1 233.6;" xml:space="preserve">
<style type="text/css">
	.st0{fill:#E90089;}
	.st1{fill:#EE5A28;}
	.st2{fill:#F8AD40;}
	.st3{fill:#FFFFFF;}
	.st4{fill:none;}
	.st5{enable-background:new    ;}
</style>
<g id="Layer_2">
</g>
<g id="Layer_1">
	<g id="Layer_2_00000029026447400755244830000006544653064314325436_">
		<rect x="40.1" y="23" class="st0" width="13.9" height="184.2"/>
		<rect x="54" y="66.9" class="st1" width="14.8" height="140.3"/>
		<rect x="68.8" y="105.1" class="st2" width="14.4" height="102.2"/>
		<rect x="96.9" y="156.2" class="st0" width="14.3" height="51.7"/>
		<rect x="111.2" y="156.2" class="st1" width="14" height="51.1"/>
		<rect x="125.3" y="151.4" class="st2" width="14.2" height="55.8"/>
		<rect x="153.7" y="182.2" class="st0" width="14.1" height="25.1"/>
		<rect x="168" y="161.3" class="st1" width="14.9" height="46"/>
		<rect x="182.9" y="157.1" class="st2" width="13.9" height="50.2"/>
		<rect x="211" y="193.3" class="st0" width="14.5" height="14"/>
		<rect x="225.5" y="188.7" class="st1" width="14.2" height="18.7"/>
		<rect x="239.7" y="162.2" class="st2" width="14.2" height="45.2"/>
		<rect x="268.4" y="201.9" class="st0" width="13.6" height="5"/>
		<rect x="282" y="197.1" class="st1" width="14.9" height="10.3"/>
		<rect x="296.8" y="193.6" class="st2" width="13.8" height="13.8"/>
	</g>
	<g id="Layer_1_00000176721577552767581490000006123784158554380472_">
		<g>
			<path class="st3" d="M175.3,208.3c-49.2,0-98.5,0-147.7,0c-2.6,0-2.7-0.1-2.7-2.7c0-3.5-0.1-7,0-10.4c0-1.4-0.5-1.8-1.7-1.7
				c-1.3,0.1-2.5,0-3.8,0c-0.5,0-0.9-0.1-1-0.8s0.4-0.9,1-0.9c1.4-0.1,2.8-0.2,4.2-0.1c1,0,1.3-0.4,1.3-1.3c0-3.3,0-6.6,0-9.8
				c0-0.9-0.4-1.2-1.2-1.1c-1.2,0-2.4,0-3.6-0.1c-0.6,0-1.6,0.2-1.7-0.9c0-1.2,0.9-0.9,1.6-0.9c1.1-0.1,2.3-0.1,3.4,0
				c1,0,1.5-0.2,1.4-1.3c0-3.3,0-6.6,0-9.8c0-1-0.4-1.3-1.3-1.3c-1.2,0.1-2.4,0-3.6,0c-0.7,0-1.6,0.3-1.6-0.9c0-1.1,0.9-0.7,1.5-0.8
				c1.3-0.1,2.5-0.1,3.8-0.1c0.8,0,1.2-0.3,1.2-1.2c0-3.3,0-6.6,0-9.8c0-1-0.4-1.3-1.3-1.3c-1.4,0-2.8,0-4.2,0
				c-0.8,0-1.3-0.3-1.3-1.1s0.7-0.8,1.3-0.8c0.1,0,0.3,0,0.4,0c5.1-0.1,5.1-0.1,5.1-5.1c0-1.7-0.1-3.5,0-5.2
				c0.1-1.2-0.4-1.5-1.5-1.5c-1.3,0-2.5-0.1-3.8-0.2c-0.6,0-1.2-0.2-1.2-1c0.1-0.8,0.7-0.6,1.2-0.6c1.3,0,2.5-0.1,3.8,0
				c1,0,1.4-0.3,1.4-1.4c-0.1-3.1-0.1-6.3,0-9.4c0-1.2-0.4-1.5-1.5-1.5c-1.3,0-2.7,0-4,0c-0.7,0-1.2-0.3-1.2-1
				c0.1-0.7,0.7-0.7,1.2-0.7c1.3,0,2.7-0.1,4,0c1,0,1.4-0.3,1.4-1.4c0-3.3,0-6.6,0-9.8c0-1-0.4-1.3-1.3-1.2c-1.3,0-2.5,0-3.8,0
				c-0.6,0-1.3,0.1-1.3-0.8c0-1,0.7-1,1.4-1c1.2,0,2.4-0.1,3.6,0c1,0,1.5-0.2,1.4-1.3c-0.1-3.3,0-6.7,0-10c0-1.1-0.4-1.4-1.4-1.4
				c-1.3,0-2.7,0-4-0.1c-0.6,0-1.1-0.2-1.1-0.9c0-0.8,0.5-0.8,1.1-0.8c1.2,0,2.4-0.1,3.6-0.1c1.3,0.1,1.8-0.3,1.8-1.7
				c-0.1-3-0.1-6,0-9c0-1.3-0.4-1.7-1.6-1.6c-1.3,0.1-2.5,0-3.8,0c-0.7,0-1.2-0.2-1.1-1s0.4-1,1.2-0.9c0.9,0.1,1.9,0,2.8,0.1
				c2,0.3,2.7-0.4,2.6-2.5c-0.2-2.7-0.1-5.5,0-8.2c0-1.2-0.3-1.7-1.6-1.6c-1.3,0.1-2.5,0-3.8,0c-0.6,0-1.1-0.2-1.1-0.9
				c0-0.8,0.6-0.8,1.1-0.9c1.1-0.1,2.2-0.2,3.2-0.1c1.8,0.2,2.3-0.6,2.2-2.3c-0.1-2.9-0.1-5.8,0-8.6c0-1.2-0.4-1.5-1.5-1.5
				c-1.3,0-2.7-0.1-4-0.1c-0.6,0-1.1-0.1-1-0.9c0-0.8,0.6-0.8,1.1-0.8c0.9,0,1.9,0,2.8,0c2.5,0,2.5,0,2.5-2.6s-0.1-5.2,0-7.8
				c0.1-1.5-0.3-2.1-1.9-1.9c-1.2,0.1-2.4,0-3.6,0c-0.6,0-1-0.1-1.1-0.9c0-0.8,0.5-0.9,1-0.9c1.4-0.1,2.8-0.1,4.2-0.1
				c0.9,0,1.3-0.3,1.3-1.3c0-3.1,0-6.3,0-9.4c0-1-0.4-1.4-1.4-1.4c-1.3,0-2.7-0.1-4-0.2c-0.6,0-1-0.3-1-1c0.1-0.6,0.6-0.7,1-0.7
				c1.3-0.1,2.5-0.1,3.8-0.1c1.1,0,1.5-0.3,1.5-1.5c0-3.3,0.1-6.6,0.2-9.8c0-0.8-0.4-2,0.9-2s0.9,1.3,0.9,2c0,25,0,50,0,75.1
				c0,39.9,0,79.7,0,119.6c0,1.5,0.3,2.1,1.9,2.1c2.9-0.1,5.9-0.1,8.8-0.1c1.3,0,1.8-0.3,1.7-1.7c-0.1-1.3,0-2.7,0-4
				c0-58.5,0-116.9,0-175.4c0-0.7,0.1-1.5,0-2.2c-0.1-1.4,0.6-1.8,1.9-1.8c4,0,8,0,12-0.1c1.6,0,1.9,0.7,1.9,2
				c0,13.4,0.1,26.9,0.1,40.3c0,1.8,0.5,2.1,2.1,2.1c3.5-0.1,7.1,0,10.6-0.1c1.5,0,1.9,0.4,1.9,2c-0.1,11.4,0,22.7,0,34.1
				c0,1.6,0.4,2.2,2.1,2.1c3.1-0.1,6.3,0,9.4,0c2.7,0,2.8,0.1,2.8,2.8c0,21.1,0,42.1,0,63.2c0,11.6,0,23.1,0,34.7
				c0,1.5,0.3,2,1.9,1.9c2.7-0.1,5.5-0.1,8.2,0c1.3,0,1.7-0.4,1.7-1.7c-0.1-9,0-17.9,0-26.9c0-6.8,0.2-13.6,0.2-20.5
				c0-1.7,0.5-2.3,2.3-2.3c8,0,16-0.2,24.1-0.2c1.5,0,2.3-0.3,2-2c-0.3-1.8,0.6-2.4,2.4-2.4c3.8,0.1,7.6,0,11.4-0.1
				c1.6,0,2.6,0.1,2.1,2.2c-0.3,1.3-0.1,2.7-0.1,4c0,15.9,0,31.8,0,47.8c0,1.6,0.4,2.3,2.1,2.2c2.9-0.1,5.7-0.1,8.6,0
				c1.4,0,1.8-0.4,1.8-1.8c0-7,0-14,0.1-21.1c0-2.3,0.3-2.6,2.7-2.7c3.1,0,6.3-0.1,9.4,0c1.5,0.1,1.9-0.5,1.9-1.9
				c0-5.4,0.1-10.7,0.1-16.1c0-2,0.6-2.7,2.7-2.7c3.5,0.1,6.9-0.1,10.4-0.1c1.3,0,2.1-0.3,1.9-1.8c-0.3-1.9,0.5-2.5,2.5-2.4
				c3.7,0.2,7.4,0.1,11,0c1.8-0.1,2.3,0.6,2.3,2.3c0,15.3,0,30.6,0,46c0,1.7,0.3,2.4,2.2,2.3c2.9-0.1,5.7-0.1,8.6,0
				c1.3,0,1.8-0.3,1.7-1.7c0-3.5,0.2-7.1,0.1-10.6c0-1.8,0.9-2.5,2.6-2.5c3.3,0,6.7-0.1,10,0c1.5,0,2.1-0.4,1.9-1.9
				c-0.2-1.8,0.7-2.2,2.4-2.2c3.1,0.1,6.3-0.1,9.4,0c1.6,0,2-0.4,2-2c0-7.5,0.2-15,0.2-22.5c0-1.9,0.7-2.4,2.5-2.4
				c3.7,0.1,7.3,0,11,0c2.5,0,2.6,0.2,2.6,2.6c0,13.2,0,26.5,0,39.7c0,3.5,0,3.5,3.5,3.5c2.4,0,4.8,0,7.2,0c1.1,0,1.6-0.3,1.5-1.5
				c0-0.1,0-0.1,0-0.2c0.1-4.7,0.1-4.7,4.8-4.7c2.6,0,5.2-0.1,7.8,0c1.2,0,1.6-0.4,1.6-1.6c0-3.2,0.1-3.2,3.3-3.2
				c3.1,0,6.3-0.1,9.4,0c1.1,0,1.8-0.2,1.7-1.5c-0.2-1.1,0.5-1.3,1.4-1.3c4.4,0,8.8-0.1,13.2-0.2c1.2,0,1.4,0.6,1.4,1.6
				c0,3.3,0.1,6.7,0,10c-0.1,1.9,0.4,2.8,2.5,2.6c3-0.2,6-0.1,9,0c0.7,0,1.9-0.5,1.9,0.8c0,1.2-1.1,0.8-1.9,0.9c-3,0-6,0-9,0
				C268.1,208.3,221.7,208.3,175.3,208.3z M53.3,115.2c0-14.4,0-28.8,0-43.1c0-15.5,0-31,0-46.6c0-1.5-0.3-2-1.9-1.9
				c-2.9,0.1-5.7,0-8.6-0.1c-1.4-0.1-1.9,0.4-1.9,1.8c0.1,3.7,0.2,7.5,0.2,11.2c0,42.8,0,85.6,0,128.4c0,13.2,0,26.5,0,39.7
				c0,1.4,0.3,2.1,1.9,2c2.6-0.1,5.2-0.2,7.8,0c2,0.1,2.5-0.6,2.5-2.6C53.2,174.4,53.3,144.8,53.3,115.2z M67.7,137L67.7,137
				c0-9.1,0-18.2,0-27.3c0-13.3,0-26.6,0.1-39.9c0-1.7-0.5-2.2-2.1-2.1c-2.7,0.1-5.3,0-8,0c-2.5,0-2.5-0.1-2.5,2.6
				c0,37.9,0,75.8,0,113.8c0,6.9,0,13.8-0.1,20.7c0,1.5,0.3,2,1.9,2c2.6-0.1,5.2,0,7.8,0c2.8,0,2.9,0,2.9-2.8
				C67.7,181.6,67.7,159.3,67.7,137z M69.7,155.9L69.7,155.9c0,16.2,0,32.4,0,48.6c0,1.6,0.4,2.3,2.1,2.2c2.7-0.1,5.5-0.1,8.2,0
				c1.5,0,2.1-0.3,2.1-2c0-32.4,0-64.7,0-97.1c0-1.4-0.5-1.7-1.7-1.6c-3,0.1-6,0.1-9,0c-1.5-0.1-1.7,0.5-1.7,1.8
				C69.7,123.8,69.7,139.8,69.7,155.9z M138.6,179.5L138.6,179.5c0.1-8.4,0.1-16.8,0.1-25.3c0-1.3-0.3-1.8-1.7-1.7
				c-3.1,0.1-6.1,0-9.2,0c-1.2,0-1.6,0.2-1.6,1.5c0,17,0,34,0,50.9c0,1.4,0.5,1.7,1.8,1.7c2.9-0.1,5.7-0.1,8.6,0
				c1.6,0.1,2.1-0.4,2.1-2C138.5,196.2,138.6,187.9,138.6,179.5z M97.8,181.7L97.8,181.7c0.1,7.7,0.1,15.4,0.1,23.1
				c0,1.4,0.4,1.9,1.8,1.9c2.9-0.1,5.9-0.1,8.8,0c1.1,0,1.7-0.2,1.7-1.6c0-15.5,0-30.9,0.1-46.4c0-1.2-0.4-1.7-1.6-1.7
				c-3,0-6,0-9-0.1c-1.5-0.1-1.9,0.4-1.9,1.9C97.9,166.4,97.8,174.1,97.8,181.7z M112.2,181.6c0,7.8,0,15.5,0,23.3
				c0,1.3,0.3,1.8,1.7,1.7c2.9-0.1,5.9-0.1,8.8,0c1.2,0,1.6-0.3,1.6-1.6c0-15.5,0-31,0.1-46.5c0-1.2-0.4-1.5-1.5-1.5
				c-2.9,0.1-5.9,0.1-8.8,0c-1.5-0.1-1.9,0.3-1.9,1.9C112.2,166.5,112.2,174.1,112.2,181.6z M181.7,184.4h0.1c0-6.8,0-13.6,0-20.4
				c0-1.3-0.4-1.7-1.7-1.7c-3.1,0.1-6.3,0-9.4-0.1c-1.6-0.1-2.2,0.4-2.1,2.1c0.2,6,0.4,12,0.2,18c-0.2,7.5,0,15.1-0.1,22.6
				c0,1.3,0.4,1.8,1.7,1.8c3.2-0.1,6.4-0.1,9.6,0c1.4,0,1.6-0.6,1.6-1.8C181.7,198,181.7,191.2,181.7,184.4z M196,182.4L196,182.4
				c0-7.6,0-15.1,0.1-22.7c0-1.3-0.3-1.7-1.7-1.7c-2.9,0.1-5.7,0.1-8.6,0c-1.5-0.1-1.9,0.4-1.9,1.9c0.1,15,0.1,29.9,0.1,44.9
				c0,1.5,0.5,1.8,1.8,1.8c2.7-0.1,5.5-0.1,8.2,0c1.7,0.1,2.1-0.6,2.1-2.2C195.9,197.1,196,189.8,196,182.4z M252.9,184.8
				C253,184.8,253,184.8,252.9,184.8c0.1-6.7,0.1-13.5,0.1-20.2c0-1.3-0.3-1.8-1.6-1.7c-3.1,0.1-6.3,0-9.4-0.1
				c-1.3-0.1-1.6,0.4-1.6,1.6c0.1,3.7,0.1,7.5,0.1,11.2c0,9.7,0,19.4,0,29.1c0,1.5,0.3,2.2,2,2.1c2.9-0.2,5.7-0.1,8.6,0
				c1.4,0,1.8-0.4,1.8-1.8C252.9,198.2,252.9,191.5,252.9,184.8z M166.7,194.9L166.7,194.9c0-3.5,0-6.9,0-10.4c0-0.9,0-1.5-1.2-1.5
				c-3.2,0.1-6.4,0-9.6,0c-1,0-1.3,0.4-1.3,1.3c0,6.9,0.1,13.9,0.1,20.8c0,1.1,0.4,1.5,1.5,1.5c3-0.1,6,0,9,0c1.1,0,1.5-0.3,1.5-1.5
				C166.7,201.7,166.7,198.3,166.7,194.9z M226.5,198h0.1c0,2.4,0,4.8,0,7.2c0,1,0.2,1.5,1.3,1.4c3.1-0.1,6.1,0,9.2,0
				c0.9,0,1.5-0.2,1.5-1.3c0-4.7,0-9.5,0-14.2c0-1.1-0.4-1.4-1.4-1.4c-3.1,0-6.3,0-9.4-0.1c-1.1,0-1.4,0.4-1.3,1.4
				C226.5,193.3,226.5,195.7,226.5,198z M224.5,200.2c0.1,0,0.1,0,0.2,0c0-1.6-0.1-3.2,0-4.8c0.1-1.1-0.3-1.5-1.5-1.5
				c-3.3,0.1-6.5,0-9.8,0c-1,0-1.4,0.3-1.4,1.3c0.1,3.4,0.1,6.8,0.1,10.2c0,1,0.4,1.3,1.3,1.3c3.3,0,6.5,0,9.8,0
				c0.9,0,1.3-0.3,1.3-1.3C224.5,203.6,224.5,201.9,224.5,200.2z M303.7,194.5c0-0.1,0-0.1,0-0.2c-1.7,0-3.3,0-5,0
				c-0.8,0-1.3,0.1-1.3,1.1c0.1,3.3,0.2,6.7,0.2,10c0,1,0.5,1.2,1.4,1.2c3.2,0,6.4,0,9.6,0c1,0,1.3-0.4,1.3-1.3
				c0-3.1,0.1-6.3,0.2-9.4c0-1-0.3-1.5-1.3-1.4C307.1,194.6,305.4,194.5,303.7,194.5z M289.4,197.4L289.4,197.4
				c-1.6,0-3.2,0-4.8-0.1c-1.2-0.1-1.5,0.4-1.4,1.5c0.1,2.1,0.1,4.1,0,6.2c0,1.2,0.4,1.6,1.6,1.6c3.1-0.1,6.1-0.1,9.2,0
				c1.2,0,1.7-0.3,1.6-1.6c-0.1-1.9,0-3.9,0.1-5.8c0.1-1.6-0.5-2-2-1.9C292.4,197.5,290.9,197.4,289.4,197.4z M275.4,202.3
				L275.4,202.3c-1.7,0-3.3,0-5-0.1c-2-0.1-1.3,1.4-1.4,2.3c-0.1,1-0.3,2.2,1.5,2.1c2.7-0.1,5.3,0,8,0c3.1,0,3,0,2.9-3
				c0-1.1-0.4-1.4-1.4-1.3C278.5,202.3,276.9,202.3,275.4,202.3z"/>
		</g>
	</g>
	<rect x="10.3" y="190.6" class="st4" width="4.6" height="5.4"/>
	<g class="st5">
		<path class="st3" d="M12.1,195.5c-1,0-1.6-0.5-1.7-1.3c0,0,0-0.1,0.1-0.1h0.9c0,0,0.1,0,0.1,0.1c0,0.4,0.3,0.6,0.7,0.6
			c0.5,0,0.8-0.4,0.8-1c0-0.7-0.2-1-0.8-1c-0.4,0-0.6,0.2-0.7,0.5c0,0,0,0.1-0.1,0.1h-0.8c0,0-0.1,0-0.1-0.1l0.2-2.5
			c0,0,0-0.1,0.1-0.1h2.9c0,0,0.1,0,0.1,0.1v0.6c0,0,0,0.1-0.1,0.1h-2l-0.1,0.9c0.2-0.2,0.6-0.3,0.9-0.3c0.9,0,1.5,0.7,1.5,1.7
			C14,194.8,13.2,195.5,12.1,195.5z"/>
	</g>
	<rect x="9" y="176.3" class="st4" width="7.2" height="5.4"/>
	<g class="st5">
		<path class="st3" d="M10.1,181.1C10.1,181.1,10,181,10.1,181.1l0-2l0-1.7c-0.3,0.2-0.6,0.4-1,0.5c0,0-0.1,0-0.1,0v-0.7
			c0,0,0-0.1,0.1-0.1c0.5-0.2,0.8-0.4,1-0.8c0,0,0.1-0.1,0.1-0.1H11c0,0,0.1,0,0.1,0.1l0,2.4l0,2.3c0,0,0,0.1-0.1,0.1H10.1z"/>
		<path class="st3" d="M13.4,181.2c-1.1,0-1.9-0.9-1.9-2.5c0-1.7,0.7-2.5,1.9-2.5c1.1,0,1.9,0.8,1.9,2.5
			C15.3,180.3,14.5,181.2,13.4,181.2z M13.4,180.4c0.5,0,0.8-0.5,0.8-1.7c0-1.2-0.3-1.7-0.8-1.7c-0.5,0-0.8,0.5-0.8,1.7
			C12.6,179.9,12.9,180.4,13.4,180.4z"/>
	</g>
	<rect x="9" y="162" class="st4" width="7.2" height="5.4"/>
	<g class="st5">
		<path class="st3" d="M10.1,166.8C10.1,166.8,10,166.8,10.1,166.8l0-2l0-1.7c-0.3,0.2-0.6,0.4-1,0.5c0,0-0.1,0-0.1,0V163
			c0,0,0-0.1,0.1-0.1c0.5-0.2,0.8-0.4,1-0.8c0,0,0.1-0.1,0.1-0.1H11c0,0,0.1,0,0.1,0.1l0,2.4l0,2.3c0,0,0,0.1-0.1,0.1H10.1z"/>
		<path class="st3" d="M13.2,166.9c-1,0-1.6-0.5-1.7-1.3c0,0,0-0.1,0.1-0.1h0.9c0,0,0.1,0,0.1,0.1c0,0.4,0.3,0.6,0.7,0.6
			c0.5,0,0.8-0.4,0.8-1c0-0.7-0.2-1-0.8-1c-0.4,0-0.6,0.2-0.7,0.5c0,0,0,0.1-0.1,0.1h-0.8c0,0-0.1,0-0.1-0.1l0.2-2.5
			c0,0,0-0.1,0.1-0.1h2.9c0,0,0.1,0,0.1,0.1v0.6c0,0,0,0.1-0.1,0.1h-2l-0.1,0.9c0.2-0.2,0.6-0.3,0.9-0.3c0.9,0,1.5,0.7,1.5,1.7
			C15.1,166.2,14.3,166.9,13.2,166.9z"/>
	</g>
	<rect x="8.4" y="147.8" class="st4" width="8.3" height="5.4"/>
	<g class="st5">
		<path class="st3" d="M8.6,152.5C8.5,152.5,8.5,152.5,8.6,152.5l-0.1-0.7c0-1.9,2.4-1.7,2.4-2.7c0-0.5-0.2-0.7-0.7-0.7
			c-0.4,0-0.7,0.3-0.7,0.9c0,0,0,0.1-0.1,0.1H8.6c0,0-0.1,0-0.1-0.1c0-1,0.6-1.6,1.7-1.6c1.1,0,1.6,0.5,1.6,1.4
			c0,1.8-2.3,1.7-2.3,2.6v0.1h2.3c0,0,0.1,0,0.1,0.1v0.6c0,0,0,0.1-0.1,0.1H8.6z"/>
		<path class="st3" d="M14,152.6c-1.1,0-1.9-0.9-1.9-2.5c0-1.7,0.7-2.5,1.9-2.5c1.1,0,1.9,0.8,1.9,2.5
			C15.9,151.8,15.1,152.6,14,152.6z M14,151.8c0.5,0,0.8-0.5,0.8-1.7c0-1.2-0.3-1.7-0.8-1.7c-0.5,0-0.8,0.5-0.8,1.7
			C13.1,151.3,13.4,151.8,14,151.8z"/>
	</g>
	<rect x="8.4" y="133.5" class="st4" width="8.3" height="5.4"/>
	<g class="st5">
		<path class="st3" d="M8.6,138.3C8.5,138.3,8.5,138.2,8.6,138.3l-0.1-0.7c0-1.9,2.4-1.7,2.4-2.7c0-0.5-0.2-0.7-0.7-0.7
			c-0.4,0-0.7,0.3-0.7,0.9c0,0,0,0.1-0.1,0.1H8.6c0,0-0.1,0-0.1-0.1c0-1,0.6-1.6,1.7-1.6c1.1,0,1.6,0.5,1.6,1.4
			c0,1.8-2.3,1.7-2.3,2.6v0.1h2.3c0,0,0.1,0,0.1,0.1v0.6c0,0,0,0.1-0.1,0.1H8.6z"/>
		<path class="st3" d="M13.7,138.4c-1,0-1.6-0.5-1.7-1.3c0,0,0-0.1,0.1-0.1H13c0,0,0.1,0,0.1,0.1c0,0.4,0.3,0.6,0.7,0.6
			c0.5,0,0.8-0.4,0.8-1c0-0.7-0.2-1-0.8-1c-0.4,0-0.6,0.2-0.7,0.5c0,0,0,0.1-0.1,0.1h-0.8c0,0-0.1,0-0.1-0.1l0.2-2.5
			c0,0,0-0.1,0.1-0.1h2.9c0,0,0.1,0,0.1,0.1v0.6c0,0,0,0.1-0.1,0.1h-2l-0.1,0.9c0.2-0.2,0.6-0.3,0.9-0.3c0.9,0,1.5,0.7,1.5,1.7
			C15.6,137.7,14.8,138.4,13.7,138.4z"/>
	</g>
	<rect x="8.4" y="119.2" class="st4" width="8.3" height="5.4"/>
	<g class="st5">
		<path class="st3" d="M10.1,124.1c-1,0-1.6-0.5-1.7-1.5c0,0,0-0.1,0.1-0.1h0.9c0,0,0.1,0,0.1,0.1c0,0.5,0.3,0.8,0.7,0.8
			c0.4,0,0.7-0.3,0.7-0.8c0-0.5-0.3-0.8-1-0.8H9.8c0,0-0.1,0-0.1-0.1v-0.5c0,0,0-0.1,0.1-0.1h0.1c0.6,0,0.9-0.3,0.9-0.6
			c0-0.4-0.3-0.6-0.6-0.6c-0.4,0-0.6,0.2-0.7,0.7c0,0,0,0.1-0.1,0.1H8.6c0,0-0.1,0-0.1-0.1c0.1-0.9,0.7-1.4,1.7-1.4
			c0.9,0,1.6,0.5,1.6,1.2c0,0.6-0.3,0.9-0.8,1c0.6,0.1,0.9,0.5,0.9,1.1C11.9,123.5,11.1,124.1,10.1,124.1z"/>
		<path class="st3" d="M14,124.1c-1.1,0-1.9-0.9-1.9-2.5c0-1.7,0.7-2.5,1.9-2.5c1.1,0,1.9,0.8,1.9,2.5
			C15.9,123.2,15.2,124.1,14,124.1z M14.1,123.3c0.5,0,0.8-0.5,0.8-1.7c0-1.2-0.3-1.7-0.8-1.7c-0.5,0-0.8,0.5-0.8,1.7
			C13.2,122.8,13.5,123.3,14.1,123.3z"/>
	</g>
	<rect x="8.4" y="105" class="st4" width="8.3" height="5.4"/>
	<g class="st5">
		<path class="st3" d="M10.1,109.8c-1,0-1.6-0.5-1.7-1.5c0,0,0-0.1,0.1-0.1h0.9c0,0,0.1,0,0.1,0.1c0,0.5,0.3,0.8,0.7,0.8
			c0.4,0,0.7-0.3,0.7-0.8c0-0.5-0.3-0.8-1-0.8H9.8c0,0-0.1,0-0.1-0.1v-0.5c0,0,0-0.1,0.1-0.1h0.1c0.6,0,0.9-0.3,0.9-0.6
			c0-0.4-0.3-0.6-0.6-0.6c-0.4,0-0.6,0.2-0.7,0.7c0,0,0,0.1-0.1,0.1H8.6c0,0-0.1,0-0.1-0.1c0.1-0.9,0.7-1.4,1.7-1.4
			c0.9,0,1.6,0.5,1.6,1.2c0,0.6-0.3,0.9-0.8,1c0.6,0.1,0.9,0.5,0.9,1.1C11.9,109.3,11.1,109.8,10.1,109.8z"/>
		<path class="st3" d="M13.9,109.8c-1,0-1.6-0.5-1.7-1.3c0,0,0-0.1,0.1-0.1h0.9c0,0,0.1,0,0.1,0.1c0,0.4,0.3,0.6,0.7,0.6
			c0.5,0,0.8-0.4,0.8-1c0-0.7-0.2-1-0.8-1c-0.4,0-0.6,0.2-0.7,0.5c0,0,0,0.1-0.1,0.1h-0.8c0,0-0.1,0-0.1-0.1l0.2-2.5
			c0,0,0-0.1,0.1-0.1h2.9c0,0,0.1,0,0.1,0.1v0.6c0,0,0,0.1-0.1,0.1h-2l-0.1,0.9c0.2-0.2,0.6-0.3,0.9-0.3c0.9,0,1.5,0.7,1.5,1.7
			C15.7,109.1,15,109.8,13.9,109.8z"/>
	</g>
	<rect x="8.4" y="90.7" class="st4" width="8.3" height="5.4"/>
	<g class="st5">
		<path class="st3" d="M12.2,94.3C12.2,94.4,12.1,94.4,12.2,94.3l-0.5,0.1v1c0,0,0,0.1-0.1,0.1h-0.9c0,0-0.1,0-0.1-0.1v-1H8.5
			c0,0-0.1,0-0.1-0.1v-0.8c0,0,0-0.1,0-0.1l1.7-2.7c0,0,0.1-0.1,0.1-0.1h1.2c0,0,0.1,0,0.1,0.1v2.9h0.5c0,0,0.1,0,0.1,0.1V94.3z
			 M10.6,92.4l0-1l-1.3,2.2h1.3V92.4z"/>
		<path class="st3" d="M14.2,95.6c-1.1,0-1.9-0.9-1.9-2.5c0-1.7,0.7-2.5,1.9-2.5c1.1,0,1.9,0.8,1.9,2.5
			C16.1,94.7,15.4,95.6,14.2,95.6z M14.2,94.8c0.5,0,0.8-0.5,0.8-1.7c0-1.2-0.3-1.7-0.8-1.7c-0.5,0-0.8,0.5-0.8,1.7
			C13.4,94.3,13.7,94.8,14.2,94.8z"/>
	</g>
	<rect x="8.4" y="76.4" class="st4" width="8.3" height="5.4"/>
	<g class="st5">
		<path class="st3" d="M12.2,80.1C12.2,80.1,12.1,80.1,12.2,80.1l-0.5,0.1v1c0,0,0,0.1-0.1,0.1h-0.9c0,0-0.1,0-0.1-0.1v-1H8.5
			c0,0-0.1,0-0.1-0.1v-0.8c0,0,0-0.1,0-0.1l1.7-2.7c0,0,0.1-0.1,0.1-0.1h1.2c0,0,0.1,0,0.1,0.1v2.9h0.5c0,0,0.1,0,0.1,0.1V80.1z
			 M10.6,78.2l0-1l-1.3,2.2h1.3V78.2z"/>
		<path class="st3" d="M14,81.3c-1,0-1.6-0.5-1.7-1.3c0,0,0-0.1,0.1-0.1h0.9c0,0,0.1,0,0.1,0.1c0,0.4,0.3,0.6,0.7,0.6
			c0.5,0,0.8-0.4,0.8-1c0-0.7-0.2-1-0.8-1c-0.4,0-0.6,0.2-0.7,0.5c0,0,0,0.1-0.1,0.1h-0.8c0,0-0.1,0-0.1-0.1l0.2-2.5
			c0,0,0-0.1,0.1-0.1h2.9c0,0,0.1,0,0.1,0.1v0.6c0,0,0,0.1-0.1,0.1h-2l-0.1,0.9c0.2-0.2,0.6-0.3,0.9-0.3c0.9,0,1.5,0.7,1.5,1.7
			C15.9,80.6,15.1,81.3,14,81.3z"/>
	</g>
	<rect x="8.4" y="62.2" class="st4" width="8.3" height="5.4"/>
	<g class="st5">
		<path class="st3" d="M10.2,67c-1,0-1.6-0.5-1.7-1.3c0,0,0-0.1,0.1-0.1h0.9c0,0,0.1,0,0.1,0.1c0,0.4,0.3,0.6,0.7,0.6
			c0.5,0,0.8-0.4,0.8-1c0-0.7-0.2-1-0.8-1c-0.4,0-0.6,0.2-0.7,0.5c0,0,0,0.1-0.1,0.1H8.7c0,0-0.1,0-0.1-0.1l0.2-2.5
			c0,0,0-0.1,0.1-0.1h2.9c0,0,0.1,0,0.1,0.1v0.6c0,0,0,0.1-0.1,0.1h-2l-0.1,0.9c0.2-0.2,0.6-0.3,0.9-0.3c0.9,0,1.5,0.7,1.5,1.7
			C12.1,66.3,11.3,67,10.2,67z"/>
		<path class="st3" d="M14.2,67c-1.1,0-1.9-0.9-1.9-2.5c0-1.7,0.7-2.5,1.9-2.5c1.1,0,1.9,0.8,1.9,2.5C16.1,66.2,15.3,67,14.2,67z
			 M14.2,66.2c0.5,0,0.8-0.5,0.8-1.7c0-1.2-0.3-1.7-0.8-1.7c-0.5,0-0.8,0.5-0.8,1.7C13.3,65.7,13.6,66.2,14.2,66.2z"/>
	</g>
	<rect x="8.4" y="47.9" class="st4" width="8.3" height="5.4"/>
	<g class="st5">
		<path class="st3" d="M10.2,52.8c-1,0-1.6-0.5-1.7-1.3c0,0,0-0.1,0.1-0.1h0.9c0,0,0.1,0,0.1,0.1c0,0.4,0.3,0.6,0.7,0.6
			c0.5,0,0.8-0.4,0.8-1c0-0.7-0.2-1-0.8-1c-0.4,0-0.6,0.2-0.7,0.5c0,0,0,0.1-0.1,0.1H8.7c0,0-0.1,0-0.1-0.1L8.8,48
			c0,0,0-0.1,0.1-0.1h2.9c0,0,0.1,0,0.1,0.1v0.6c0,0,0,0.1-0.1,0.1h-2l-0.1,0.9c0.2-0.2,0.6-0.3,0.9-0.3c0.9,0,1.5,0.7,1.5,1.7
			C12.1,52.1,11.3,52.8,10.2,52.8z"/>
		<path class="st3" d="M14,52.8c-1,0-1.6-0.5-1.7-1.3c0,0,0-0.1,0.1-0.1h0.9c0,0,0.1,0,0.1,0.1c0,0.4,0.3,0.6,0.7,0.6
			c0.5,0,0.8-0.4,0.8-1c0-0.7-0.2-1-0.8-1c-0.4,0-0.6,0.2-0.7,0.5c0,0,0,0.1-0.1,0.1h-0.8c0,0-0.1,0-0.1-0.1l0.2-2.5
			c0,0,0-0.1,0.1-0.1h2.9c0,0,0.1,0,0.1,0.1v0.6c0,0,0,0.1-0.1,0.1h-2l-0.1,0.9c0.2-0.2,0.6-0.3,0.9-0.3c0.9,0,1.5,0.7,1.5,1.7
			C15.8,52.1,15.1,52.8,14,52.8z"/>
	</g>
	<rect x="8.4" y="33.6" class="st4" width="8.3" height="5.4"/>
	<g class="st5">
		<path class="st3" d="M10.4,38.5c-1.2,0-1.9-0.8-1.9-2.5c0-1.6,0.8-2.5,1.9-2.5c0.9,0,1.4,0.4,1.5,1.2c0,0,0,0.1-0.1,0.1H11
			c0,0-0.1,0-0.1-0.1c-0.1-0.3-0.2-0.5-0.6-0.5c-0.5,0-0.8,0.5-0.8,1.3c0.2-0.2,0.5-0.4,1-0.4c0.9,0,1.5,0.6,1.5,1.6
			C12.1,37.7,11.4,38.5,10.4,38.5z M10.3,37.8c0.4,0,0.7-0.3,0.7-0.9c0-0.6-0.2-0.9-0.7-0.9s-0.7,0.3-0.7,0.9
			C9.6,37.4,9.9,37.8,10.3,37.8z"/>
		<path class="st3" d="M14.2,38.5c-1.1,0-1.9-0.9-1.9-2.5c0-1.7,0.7-2.5,1.9-2.5c1.1,0,1.9,0.8,1.9,2.5
			C16.1,37.6,15.4,38.5,14.2,38.5z M14.2,37.7c0.5,0,0.8-0.5,0.8-1.7c0-1.2-0.3-1.7-0.8-1.7c-0.5,0-0.8,0.5-0.8,1.7
			C13.4,37.2,13.7,37.7,14.2,37.7z"/>
	</g>
	<rect x="8.4" y="19.4" class="st4" width="8.3" height="5.4"/>
	<g class="st5">
		<path class="st3" d="M10.4,24.2c-1.2,0-1.9-0.8-1.9-2.5c0-1.6,0.8-2.5,1.9-2.5c0.9,0,1.4,0.4,1.5,1.2c0,0,0,0.1-0.1,0.1H11
			c0,0-0.1,0-0.1-0.1c-0.1-0.3-0.2-0.5-0.6-0.5c-0.5,0-0.8,0.5-0.8,1.3c0.2-0.2,0.5-0.4,1-0.4c0.9,0,1.5,0.6,1.5,1.6
			C12.1,23.4,11.4,24.2,10.4,24.2z M10.3,23.5c0.4,0,0.7-0.3,0.7-0.9c0-0.6-0.2-0.9-0.7-0.9S9.6,22,9.6,22.6
			C9.6,23.1,9.9,23.5,10.3,23.5z"/>
		<path class="st3" d="M14.1,24.2c-1,0-1.6-0.5-1.7-1.3c0,0,0-0.1,0.1-0.1h0.9c0,0,0.1,0,0.1,0.1c0,0.4,0.3,0.6,0.7,0.6
			c0.5,0,0.8-0.4,0.8-1c0-0.7-0.2-1-0.8-1c-0.4,0-0.6,0.2-0.7,0.5c0,0,0,0.1-0.1,0.1h-0.8c0,0-0.1,0-0.1-0.1l0.2-2.5
			c0,0,0-0.1,0.1-0.1h2.9c0,0,0.1,0,0.1,0.1v0.6c0,0,0,0.1-0.1,0.1h-2l-0.1,0.9c0.2-0.2,0.6-0.3,0.9-0.3c0.9,0,1.5,0.7,1.5,1.7
			C15.9,23.5,15.2,24.2,14.1,24.2z"/>
	</g>
	<rect x="43.8" y="212.3" class="st4" width="35.3" height="17"/>
	<g class="st5">
		<path class="st3" d="M46.5,218.6C46.5,218.6,46.4,218.6,46.5,218.6l0-3l0-2.9c0,0,0-0.1,0.1-0.1h4c0,0,0.1,0,0.1,0.1v0.8
			c0,0,0,0.1-0.1,0.1h-2.8l0,1.4h2.6c0,0,0.1,0,0.1,0.1v0.8c0,0,0,0.1-0.1,0.1h-2.6l0,1.7h2.8c0,0,0.1,0,0.1,0.1v0.8
			c0,0,0,0.1-0.1,0.1H46.5z"/>
		<path class="st3" d="M52.9,218.7c-1.3,0-2.1-0.5-2.1-1.5c0,0,0-0.1,0.1-0.1H52c0,0,0.1,0,0.1,0.1c0,0.5,0.4,0.7,1,0.7
			c0.5,0,0.8-0.2,0.8-0.5c0-0.8-2.9,0-2.9-1.9c0-0.9,0.7-1.4,1.9-1.4c1.1,0,1.9,0.5,2,1.4c0,0,0,0.1-0.1,0.1h-1c0,0-0.1,0-0.1-0.1
			c-0.1-0.4-0.3-0.6-0.8-0.6c-0.4,0-0.7,0.2-0.7,0.5c0,0.8,2.9,0,2.9,1.8C55,218.2,54.1,218.7,52.9,218.7z"/>
		<path class="st3" d="M57.8,218.5c0,0,0,0.1-0.1,0.1c-0.2,0.1-0.5,0.1-0.8,0.1c-0.7,0-1.4-0.4-1.4-1.4l0-2.2H55c0,0-0.1,0-0.1-0.1
			v-0.8c0,0,0-0.1,0.1-0.1h0.5l0-1c0,0,0-0.1,0.1-0.1h1.1c0,0,0.1,0,0.1,0.1l0,1h1c0,0,0.1,0,0.1,0.1v0.8c0,0,0,0.1-0.1,0.1h-1
			l0,2.2c0,0.4,0.2,0.5,0.5,0.5c0.2,0,0.4,0,0.5-0.1c0,0,0.1,0,0.1,0.1V218.5z"/>
		<path class="st3" d="M61.1,218.6C61.1,218.6,61.1,218.6,61.1,218.6l-0.1-0.5c-0.3,0.4-0.7,0.6-1.3,0.6c-1.2,0-1.9-1-1.9-2.3
			c0-1.3,0.7-2.3,1.9-2.3c0.5,0,1,0.2,1.3,0.6l0-0.4c0,0,0-0.1,0.1-0.1h1.1c0,0,0.1,0,0.1,0.1l0,2.1l0,2.1c0,0,0,0.1-0.1,0.1H61.1z
			 M60.1,217.9c0.6,0,1-0.5,1-1.4c0-0.9-0.3-1.4-0.9-1.5c-0.6,0-1,0.5-1,1.4C59.2,217.4,59.5,217.9,60.1,217.9z"/>
		<path class="st3" d="M65.9,218.6C65.9,218.6,65.8,218.6,65.9,218.6l-0.1-0.5c-0.3,0.4-0.7,0.6-1.3,0.6c-1.2,0-1.9-1-1.9-2.3
			c0-1.3,0.7-2.3,1.9-2.3c0.5,0,1,0.2,1.3,0.5l0-2c0,0,0-0.1,0.1-0.1H67c0,0,0.1,0,0.1,0.1l0,2.9l0,2.9c0,0,0,0.1-0.1,0.1H65.9z
			 M64.9,217.9c0.6,0,1-0.5,1-1.4c0-0.9-0.3-1.5-0.9-1.5c-0.6,0-1,0.5-1,1.4C64,217.4,64.3,217.9,64.9,217.9z"/>
		<path class="st3" d="M69.7,218.8c-1.4,0-2.3-0.9-2.3-2.3s0.8-2.3,2.3-2.3c1.4,0,2.2,0.9,2.2,2.3S71.1,218.8,69.7,218.8z
			 M69.7,217.9c0.6,0,0.9-0.4,0.9-1.4c0-1-0.3-1.5-0.9-1.5c-0.6,0-0.9,0.5-0.9,1.5C68.7,217.5,69,217.9,69.7,217.9z"/>
		<path class="st3" d="M74.2,218.7c-1.3,0-2.1-0.5-2.1-1.5c0,0,0-0.1,0.1-0.1h1.1c0,0,0.1,0,0.1,0.1c0,0.5,0.4,0.7,1,0.7
			c0.5,0,0.8-0.2,0.8-0.5c0-0.8-2.9,0-2.9-1.9c0-0.9,0.7-1.4,1.9-1.4c1.1,0,1.9,0.5,2,1.4c0,0,0,0.1-0.1,0.1h-1c0,0-0.1,0-0.1-0.1
			c-0.1-0.4-0.3-0.6-0.8-0.6c-0.4,0-0.7,0.2-0.7,0.5c0,0.8,2.9,0,2.9,1.8C76.2,218.2,75.3,218.7,74.2,218.7z"/>
	</g>
	<g class="st5">
		<path class="st3" d="M51.4,229c-1.6,0-2.4-0.8-2.4-2.3l0-1.6l0-2.1c0,0,0-0.1,0.1-0.1h1.2c0,0,0.1,0,0.1,0.1l0,2v1.6
			c0,0.9,0.3,1.3,1.1,1.3c0.8,0,1.2-0.5,1.2-1.3V225l0-2c0,0,0-0.1,0.1-0.1h1.1c0,0,0.1,0,0.1,0.1l0,2.1v1.6
			C53.8,228.1,53,229,51.4,229z"/>
		<path class="st3" d="M54.3,228.8C54.3,228.8,54.3,228.8,54.3,228.8l-0.1-2.1l0-2.2c0,0,0-0.1,0.1-0.1h1.1c0,0,0.1,0,0.1,0.1l0,0.5
			c0.3-0.4,0.8-0.7,1.4-0.7c0.9,0,1.5,0.6,1.5,1.7v0.9l0,1.8c0,0,0,0.1-0.1,0.1h-1.1c0,0-0.1,0-0.1-0.1l0-1.8v-0.9
			c0-0.5-0.3-0.8-0.7-0.8c-0.5,0-1,0.4-1,1.4v0.3l0,1.8c0,0,0,0.1-0.1,0.1H54.3z"/>
		<path class="st3" d="M58.9,224C58.9,224,58.8,224,58.9,224l-0.1-1.1c0,0,0-0.1,0.1-0.1H60c0,0,0.1,0,0.1,0.1v1c0,0,0,0.1-0.1,0.1
			H58.9z M58.9,228.8C58.9,228.8,58.8,228.8,58.9,228.8l-0.1-2.2l0-2.1c0,0,0-0.1,0.1-0.1h1.1c0,0,0.1,0,0.1,0.1l0,2.1l0,2.1
			c0,0,0,0.1-0.1,0.1H58.9z"/>
		<path class="st3" d="M63.7,228.8C63.7,228.8,63.6,228.8,63.7,228.8l-0.1-0.5c-0.3,0.4-0.7,0.6-1.3,0.6c-1.2,0-1.9-1-1.9-2.3
			c0-1.3,0.7-2.3,1.9-2.3c0.5,0,1,0.2,1.3,0.5l0-2c0,0,0-0.1,0.1-0.1h1.1c0,0,0.1,0,0.1,0.1l0,2.9l0,2.9c0,0,0,0.1-0.1,0.1H63.7z
			 M62.7,228.1c0.6,0,1-0.5,1-1.4c0-0.9-0.3-1.5-0.9-1.5c-0.6,0-1,0.5-1,1.4C61.8,227.6,62.1,228.1,62.7,228.1z"/>
		<path class="st3" d="M67.5,229c-1.4,0-2.3-0.9-2.3-2.3s0.8-2.3,2.3-2.3c1.4,0,2.2,0.9,2.2,2.3S68.9,229,67.5,229z M67.5,228.1
			c0.6,0,0.9-0.4,0.9-1.4c0-1-0.3-1.5-0.9-1.5c-0.6,0-0.9,0.5-0.9,1.5C66.5,227.7,66.8,228.1,67.5,228.1z"/>
		<path class="st3" d="M72,228.9c-1.3,0-2.1-0.5-2.1-1.5c0,0,0-0.1,0.1-0.1H71c0,0,0.1,0,0.1,0.1c0,0.5,0.4,0.7,1,0.7
			c0.5,0,0.8-0.2,0.8-0.5c0-0.8-2.9,0-2.9-1.9c0-0.9,0.7-1.4,1.9-1.4c1.1,0,1.9,0.5,2,1.4c0,0,0,0.1-0.1,0.1h-1c0,0-0.1,0-0.1-0.1
			c-0.1-0.4-0.3-0.6-0.8-0.6c-0.4,0-0.7,0.2-0.7,0.5c0,0.8,2.9,0,2.9,1.8C74,228.4,73.1,228.9,72,228.9z"/>
	</g>
	<rect x="100.6" y="212.3" class="st4" width="35.3" height="17"/>
	<g class="st5">
		<path class="st3" d="M106.6,223.9c-1.8,0-3-1.3-3-3.1c0-1.9,1.2-3.1,3-3.1c1.3,0,2.3,0.5,2.7,2.1c0,0,0,0.1-0.1,0.1H108
			c0,0-0.1,0-0.1-0.1c-0.2-0.7-0.6-1.1-1.4-1.1c-1,0-1.6,0.8-1.6,2.1s0.6,2.1,1.6,2.1c0.8,0,1.3-0.5,1.4-1.3c0,0,0.1-0.1,0.1-0.1
			h1.1c0,0,0.1,0,0.1,0.1C108.9,223.3,107.9,223.9,106.6,223.9z"/>
		<path class="st3" d="M112.7,223.8C112.7,223.8,112.6,223.7,112.7,223.8l-0.1-0.5c-0.3,0.4-0.7,0.6-1.3,0.6c-1.2,0-1.9-1-1.9-2.3
			c0-1.3,0.7-2.3,1.9-2.3c0.5,0,1,0.2,1.3,0.6l0-0.4c0,0,0-0.1,0.1-0.1h1.1c0,0,0.1,0,0.1,0.1l0,2.1l0,2.1c0,0,0,0.1-0.1,0.1H112.7z
			 M111.7,223c0.6,0,1-0.5,1-1.4c0-0.9-0.3-1.4-0.9-1.5c-0.6,0-1,0.5-1,1.4C110.7,222.5,111.1,223,111.7,223z"/>
		<path class="st3" d="M114.4,223.8C114.3,223.8,114.3,223.7,114.4,223.8l-0.1-2.1l0-2.2c0,0,0-0.1,0.1-0.1h1.1c0,0,0.1,0,0.1,0.1
			l0,0.5c0.3-0.4,0.8-0.7,1.4-0.7c0.9,0,1.5,0.6,1.5,1.7v0.9l0,1.8c0,0,0,0.1-0.1,0.1h-1.1c0,0-0.1,0-0.1-0.1l0-1.8V221
			c0-0.5-0.3-0.8-0.7-0.8c-0.5,0-1,0.4-1,1.4v0.3l0,1.8c0,0,0,0.1-0.1,0.1H114.4z"/>
		<path class="st3" d="M122,223.8C122,223.8,121.9,223.7,122,223.8l-0.1-0.5c-0.3,0.4-0.7,0.6-1.3,0.6c-1.2,0-1.9-1-1.9-2.3
			c0-1.3,0.7-2.3,1.9-2.3c0.5,0,1,0.2,1.3,0.6l0-0.4c0,0,0-0.1,0.1-0.1h1.1c0,0,0.1,0,0.1,0.1l0,2.1l0,2.1c0,0,0,0.1-0.1,0.1H122z
			 M121,223c0.6,0,1-0.5,1-1.4c0-0.9-0.3-1.4-0.9-1.5c-0.6,0-1,0.5-1,1.4C120,222.5,120.4,223,121,223z"/>
		<path class="st3" d="M126.7,223.8C126.7,223.8,126.7,223.7,126.7,223.8l-0.1-0.5c-0.3,0.4-0.7,0.6-1.3,0.6c-1.2,0-1.9-1-1.9-2.3
			c0-1.3,0.7-2.3,1.9-2.3c0.5,0,1,0.2,1.3,0.5l0-2c0,0,0-0.1,0.1-0.1h1.1c0,0,0.1,0,0.1,0.1l0,2.9l0,2.9c0,0,0,0.1-0.1,0.1H126.7z
			 M125.8,223c0.6,0,1-0.5,1-1.4c0-0.9-0.3-1.5-0.9-1.5c-0.6,0-1,0.5-1,1.4C124.8,222.5,125.1,223,125.8,223z"/>
		<path class="st3" d="M131.5,223.8C131.5,223.8,131.4,223.7,131.5,223.8l-0.1-0.5c-0.3,0.4-0.7,0.6-1.3,0.6c-1.2,0-1.9-1-1.9-2.3
			c0-1.3,0.7-2.3,1.9-2.3c0.5,0,1,0.2,1.3,0.6l0-0.4c0,0,0-0.1,0.1-0.1h1.1c0,0,0.1,0,0.1,0.1l0,2.1l0,2.1c0,0,0,0.1-0.1,0.1H131.5z
			 M129.7,219c0,0-0.1,0-0.1-0.1l-0.2-0.5c0,0,0-0.1,0-0.1l2-0.9c0,0,0.1,0,0.1,0l0.3,0.8c0,0,0,0.1-0.1,0.1L129.7,219z M130.5,223
			c0.6,0,1-0.5,1-1.4c0-0.9-0.3-1.4-0.9-1.5c-0.6,0-1,0.5-1,1.4C129.6,222.5,129.9,223,130.5,223z"/>
	</g>
	<rect x="157.8" y="212.3" class="st4" width="35.3" height="17"/>
	<g class="st5">
		<path class="st3" d="M168.6,223.9c-1.8,0-3-1.3-3-3.1c0-1.9,1.2-3.1,3-3.1c1.3,0,2.3,0.5,2.7,2.1c0,0,0,0.1-0.1,0.1h-1.1
			c0,0-0.1,0-0.1-0.1c-0.2-0.7-0.6-1.1-1.4-1.1c-1,0-1.6,0.8-1.6,2.1s0.6,2.1,1.6,2.1c0.8,0,1.3-0.5,1.4-1.3c0,0,0.1-0.1,0.1-0.1
			h1.1c0,0,0.1,0,0.1,0.1C171,223.3,170,223.9,168.6,223.9z"/>
		<path class="st3" d="M173.1,223.9c-0.9,0-1.5-0.6-1.5-1.7v-0.9l0-1.8c0,0,0-0.1,0.1-0.1h1.1c0,0,0.1,0,0.1,0.1l0,1.8v0.9
			c0,0.5,0.3,0.8,0.7,0.8c0.5,0,1-0.4,1-1.4v-0.3l0-1.8c0,0,0-0.1,0.1-0.1h1.2c0,0,0.1,0,0.1,0.1l0,2l0,2.2c0,0,0,0.1-0.1,0.1h-1.1
			c0,0-0.1,0-0.1-0.1l0-0.5C174.2,223.6,173.7,223.9,173.1,223.9z"/>
		<path class="st3" d="M178.7,223.8c-0.5,0-1-0.2-1.3-0.6l0,0.4c0,0,0,0.1-0.1,0.1h-1.1c0,0-0.1,0-0.1-0.1l0-2.9l0-2.9
			c0,0,0-0.1,0.1-0.1h1.1c0,0,0.1,0,0.1,0.1l0,2c0.3-0.4,0.7-0.6,1.3-0.6c1.2,0,1.9,1,1.9,2.3C180.6,222.8,179.8,223.8,178.7,223.8z
			 M178.3,223c0.6,0,1-0.5,1-1.4c0-1-0.3-1.5-1-1.4c-0.6,0-1,0.5-1,1.4C177.4,222.5,177.7,223,178.3,223z"/>
		<path class="st3" d="M184,223.8C184,223.8,184,223.7,184,223.8l-0.1-0.5c-0.3,0.4-0.7,0.6-1.3,0.6c-1.2,0-1.9-1-1.9-2.3
			c0-1.3,0.7-2.3,1.9-2.3c0.5,0,1,0.2,1.3,0.6l0-0.4c0,0,0-0.1,0.1-0.1h1.1c0,0,0.1,0,0.1,0.1l0,2.1l0,2.1c0,0,0,0.1-0.1,0.1H184z
			 M183,223c0.6,0,1-0.5,1-1.4c0-0.9-0.3-1.4-0.9-1.5c-0.6,0-1,0.5-1,1.4C182.1,222.5,182.4,223,183,223z"/>
	</g>
	<rect x="214.9" y="212.3" class="st4" width="35.3" height="17"/>
	<g class="st5">
		<path class="st3" d="M224.9,223.8h-2.6c0,0-0.1,0-0.1-0.1l0-2.9l0-2.9c0,0,0-0.1,0.1-0.1h2.6c1.2,0,2.1,0.4,2.1,1.5
			c0,0.7-0.4,1.1-1,1.3c0.8,0.2,1.2,0.7,1.2,1.4C227.1,223.2,226,223.8,224.9,223.8z M223.5,220.2h1.4c0.5,0,0.8-0.3,0.8-0.7
			c0-0.5-0.4-0.8-0.8-0.8h-1.3L223.5,220.2z M223.5,222.9h1.3c0.5,0,1-0.2,1-0.9c0-0.6-0.4-0.9-1-0.9h-1.4L223.5,222.9z"/>
		<path class="st3" d="M227.5,223.8C227.5,223.8,227.4,223.7,227.5,223.8l0-2.2l0-2.1c0,0,0-0.1,0.1-0.1h1.1c0,0,0.1,0,0.1,0.1
			l0,0.7c0.3-0.5,0.9-0.8,1.6-0.8c0.1,0,0.1,0,0.2,0c0,0,0.1,0.1,0.1,0.1v0.8c0,0,0,0.1-0.1,0.1c-0.1,0-0.1,0-0.2,0
			c-0.9,0-1.6,0.5-1.6,1.5v1.9c0,0,0,0.1-0.1,0.1H227.5z"/>
		<path class="st3" d="M233.7,223.8C233.6,223.8,233.6,223.7,233.7,223.8l-0.1-0.5c-0.3,0.4-0.7,0.6-1.3,0.6c-1.2,0-1.9-1-1.9-2.3
			c0-1.3,0.7-2.3,1.9-2.3c0.5,0,1,0.2,1.3,0.6l0-0.4c0,0,0-0.1,0.1-0.1h1.1c0,0,0.1,0,0.1,0.1l0,2.1l0,2.1c0,0,0,0.1-0.1,0.1H233.7z
			 M232.7,223c0.6,0,1-0.5,1-1.4c0-0.9-0.3-1.4-0.9-1.5c-0.6,0-1,0.5-1,1.4C231.7,222.5,232.1,223,232.7,223z"/>
		<path class="st3" d="M237.3,223.9c-1.3,0-2.1-0.5-2.1-1.5c0,0,0-0.1,0.1-0.1h1.1c0,0,0.1,0,0.1,0.1c0,0.5,0.4,0.7,1,0.7
			c0.5,0,0.8-0.2,0.8-0.5c0-0.8-2.9,0-2.9-1.9c0-0.9,0.7-1.4,1.9-1.4c1.2,0,1.9,0.5,2,1.4c0,0,0,0.1-0.1,0.1h-1c0,0-0.1,0-0.1-0.1
			c-0.1-0.4-0.3-0.6-0.8-0.6c-0.4,0-0.7,0.2-0.7,0.5c0,0.8,2.9,0,2.9,1.8C239.4,223.3,238.5,223.9,237.3,223.9z"/>
		<path class="st3" d="M239.8,218.9C239.7,218.9,239.7,218.9,239.8,218.9l-0.1-1.1c0,0,0-0.1,0.1-0.1h1.1c0,0,0.1,0,0.1,0.1v1
			c0,0,0,0.1-0.1,0.1H239.8z M239.8,223.8C239.7,223.8,239.7,223.7,239.8,223.8l-0.1-2.2l0-2.1c0,0,0-0.1,0.1-0.1h1.1
			c0,0,0.1,0,0.1,0.1l0,2.1l0,2.1c0,0,0,0.1-0.1,0.1H239.8z"/>
		<path class="st3" d="M241.5,223.8C241.5,223.8,241.5,223.7,241.5,223.8l0-3l0-2.9c0,0,0-0.1,0.1-0.1h1.1c0,0,0.1,0,0.1,0.1l0,2.9
			l0,2.9c0,0,0,0.1-0.1,0.1H241.5z"/>
	</g>
	<rect x="271.8" y="212.3" class="st4" width="35.3" height="17"/>
	<g class="st5">
		<path class="st3" d="M277.4,221.2v2.4c0,0,0,0.1-0.1,0.1h-1c0,0-0.1,0-0.1-0.1l0-2.9l0-2.9c0,0,0-0.1,0.1-0.1h1.6
			c0,0,0.1,0,0.1,0.1l1.6,4.3l1.5-4.3c0,0,0.1-0.1,0.1-0.1h1.5c0,0,0.1,0,0.1,0.1l0,2.9l0,2.9c0,0,0,0.1-0.1,0.1h-1.1
			c0,0-0.1,0-0.1-0.1v-2.4l0-1.4l0-0.3l-1.5,4.1c0,0-0.1,0.1-0.1,0.1h-0.9c0,0-0.1,0-0.1-0.1l-1.6-4.3l0,0.5L277.4,221.2z"/>
		<path class="st3" d="M287.4,222.3C287.4,222.3,287.5,222.3,287.4,222.3c0,0.9-0.8,1.6-2,1.6c-1.5,0-2.3-1-2.3-2.3
			c0-1.4,0.8-2.3,2.2-2.3c1.4,0,2.2,1,2.3,2.5c0,0,0,0.1-0.1,0.1h-3.1c0.1,0.8,0.4,1.2,1,1.2c0.4,0,0.7-0.2,0.9-0.7
			c0,0,0.1-0.1,0.1-0.1H287.4z M284.5,219c0,0-0.1,0-0.1-0.1l-0.2-0.5c0,0,0-0.1,0-0.1l2-0.9c0,0,0.1,0,0.1,0l0.3,0.8
			c0,0,0,0.1-0.1,0.1L284.5,219z M285.3,220.1c-0.5,0-0.8,0.3-0.9,0.9h1.8C286.2,220.5,285.9,220.1,285.3,220.1z"/>
		<path class="st3" d="M290.2,223.8c0,0-0.1,0-0.1-0.1l-0.8-1.4l-0.8,1.4c0,0-0.1,0.1-0.1,0.1h-1.2c0,0-0.1,0,0-0.1l1.3-2.2l-1.3-2
			c0,0,0-0.1,0-0.1h1.3c0,0,0.1,0,0.1,0.1l0.7,1.4l0.7-1.4c0,0,0.1-0.1,0.1-0.1h1.1c0,0,0.1,0,0,0.1l-1.2,2.1l1.3,2.2
			c0,0,0,0.1,0,0.1H290.2z"/>
		<path class="st3" d="M291.7,218.9C291.7,218.9,291.7,218.9,291.7,218.9l-0.1-1.1c0,0,0-0.1,0.1-0.1h1.1c0,0,0.1,0,0.1,0.1v1
			c0,0,0,0.1-0.1,0.1H291.7z M291.7,223.8C291.7,223.8,291.7,223.7,291.7,223.8l-0.1-2.2l0-2.1c0,0,0-0.1,0.1-0.1h1.1
			c0,0,0.1,0,0.1,0.1l0,2.1l0,2.1c0,0,0,0.1-0.1,0.1H291.7z"/>
		<path class="st3" d="M295.5,223.9c-1.4,0-2.2-0.9-2.2-2.3s0.8-2.3,2.3-2.3c1.1,0,1.9,0.6,2,1.6c0,0,0,0.1-0.1,0.1h-1
			c0,0-0.1,0-0.1-0.1c-0.1-0.5-0.4-0.7-0.8-0.7c-0.6,0-1,0.5-1,1.4c0,1,0.3,1.4,1,1.4c0.4,0,0.8-0.3,0.8-0.9c0,0,0-0.1,0.1-0.1h1.1
			c0,0,0.1,0,0.1,0.1C297.5,223.1,296.7,223.9,295.5,223.9z"/>
		<path class="st3" d="M300,223.9c-1.4,0-2.3-0.9-2.3-2.3s0.8-2.3,2.3-2.3c1.4,0,2.2,0.9,2.2,2.3S301.4,223.9,300,223.9z M300,223
			c0.6,0,0.9-0.4,0.9-1.4c0-1-0.3-1.5-0.9-1.5c-0.6,0-0.9,0.5-0.9,1.5C299.1,222.6,299.4,223,300,223z"/>
	</g>
</g>
</svg>
