<?xml version="1.0" encoding="UTF-8"?>
<svg id="Layer_1" data-name="Layer 1" xmlns="http://www.w3.org/2000/svg" viewBox="0 0 3240 1080">
  <defs>
    <style>
      .cls-1 {
        fill: #757373;
      }

      .cls-2 {
        fill: #fff;
      }

      .cls-3 {
        fill: #bcbab8;
      }

      .cls-4 {
        fill: #c9c9c9;
      }

      .cls-5 {
        fill: #aba9a8;
      }

      .cls-6 {
        opacity: .3;
      }
    </style>
  </defs>
  <rect width="3240" height="1080"/>
  <path class="cls-2" d="m0,1089.53v-25.13c0-11.28,22.63-11.81,39.93-11.81h3156.36c17.3,0,43.71-1.17,43.71,10.11v25.13c0,11.28-26.42,19.91-43.71,19.91H39.93c-17.3,0-39.93-6.93-39.93-18.21Z"/>
  <g class="cls-6">
    <g id="Capa_5" data-name="Capa 5">
      <path class="cls-1" d="m441.33,515.01s-16.69-22.94-11-37.35c0,0-14.79-1.9-12.14-13.84,2.65-11.95,17.07-13.46,17.07-13.46,0,0,8.34-3.6,8.72,3.22,0,0,3.41,1.52.76,5.5,0,0,2.28-1.9,3.41-1.52l-.57,11.38s-4.17,26.74-3.41,30.91l-2.28,15.55-.57-.38Z"/>
    </g>
    <path class="cls-3" d="m492.91,750.13s6.07,28.06-3.6,61.44c0,0-8.53,52.33-6.64,52.9,0,0-4.93,32.8-3.03,39.06,0,0,1.05,4.38-4.45,29.22,0,0-7.4,69.97-2.47,78.5,0,0-4.74,21.24,18.39,27.49,0,0,19.91,9.86-3.22,10.62,0,0-30.91-5.31-36.98-14.41,0,0-6.26-1.9-6.26-12.51l.95-35.27s1.14-20.48,3.03-23.13l5.97-30.93,2.65-45.13,4.74-36.79s15.55-63.71,12.14-74.52c0,.38,12.14-27.49,18.77-26.55Z"/>
    <path class="cls-5" d="m463.63,1055.26s24.93,7.8,20.1-6.22c-.49-1.43-1.73-2.48-3.22-2.74-8.13-1.42-35.85-7.56-34.72-25.37,1.33-20.86,1.71-42.1,6.26-67.5,0,0,4.83,4.91,8.81-47.23,0,0,0-27.12,3.98-41.34,0,0,18.58-66.18,14.6-97.08,0,0,8.34-65.04-41.34-50.82,0,0-24.84,3.6-21.81,29.2,0,0,.38,20.1,4.93,35.46,0,0,1.71,26.74,2.28,32.8,0,0,7.58,50.82-.38,69.4,0,0-18.1,39.65-12.04,49.89,0,0,8.34,82.1,1.71,91.02,0,0-11.57,16.5,9.29,21.24,0,0,8.61,3.41,19.7,5.92,0,0,12.16,1.89,14.65,2.2.19,0,4.71.21,7.19,1.19Z"/>
    <path class="cls-2" d="m480.01,764.74s7.02-13.46,12.89-14.6c0,0,3.41-3.41,3.6-7.21,0,0,0-2.84,2.47-12.33,0,0,4.93-22.56,5.31-41.15,0,0,1.9-32.42,1.9-36.6,0,0,2.84-25.03,2.09-36.22,0,0,2.84-30.15-17.26-48.73,0,0-15.17-12.7-14.79-15.93,0,0-7.58-5.12-7.58-2.47,0,0,7.96,39.06-6.83,43.99,0,0-13.65,10.24-24.65-3.41,0,0-8.91-12.89-5.88-22,0,0,.57-3.79,2.84-9.48l2.28-7.77.76-2.47.19-1.52.57-2.09.38-2.09s-7.21,6.83-7.96,8.72c0,0-3.79,8.34-5.88,28.63,0,0-2.65,25.79-2.28,33.18,0,0,1.33,11.57,5.69,17.63,0,0,11.38,20.1,11.95,37.54,0,0,.57,7.77-3.6,13.46,0,0-10.05,8.91-12.7,18.96,0,0-9.48,34.13-7.4,44.37l.57,6.26.38,1.52.19.19-.38-4.55s-.19-3.98-.19-4.36c0,0-3.41-22.19,22-27.49,0,0,21.62-7.77,32.99,7.02-.38.19,9.48,10.62,8.34,40.96Z"/>
    <path class="cls-3" d="m468.63,549.71s8.34,38.87-6.83,43.99c0,0-13.08,10.24-24.65-3.41,0,0-8.72-12.51-5.88-22,0,0,1.33-5.88,2.84-9.48l3.03-10.05s.19-1.33.57-3.03l.57-2.65s3.41-22.37,3.22-25.6c0,0,1.52-23.51,2.84-31.1,0,0,1.52-33.18.19-35.08,0,0-3.79-5.5.95-54.23,0,0,5.31-38.87,12.51-58.78,0,0,3.79-17.26,2.65-22,0,0,2.65-11.76,5.69-3.03,0,0,4.36,13.27,3.6,17.07,0,0,1.33,3.03,4.17,1.52,0,0,4.93-3.79,3.6,2.84,0,0-7.4,20.1-6.83,25.79,0,0-1.71,18.01-.57,24.27,0,0,4.93,45.51-1.9,66.18,0,0-1.71,25.41-.19,27.87-.57,0,2.84,65.04.38,70.92Z"/>
    <path class="cls-3" d="m466.17,459.26s13.65.95,23.32,7.77c4.36,3.03,7.96,7.4,9.29,13.27,0,0,2.65,9.29,1.9,15.55,0,0,1.33,13.84-1.71,18.58,0,0,.57,14.79-6.64,16.31,0,0-18.39,1.71-18.77,4.74,0,0-3.41,13.27,2.28,16.69,0,0-7.02-4.93-8.53-3.41,0,0,1.14-15.36.76-17.82l-.57-26.93-.76-21.43-.76-16.5-.76-6.07-.19-.95,1.14.19Z"/>
    <path class="cls-3" d="m467.69,521.08c6.45-18.58,1.71-41.15,10.43-59.73,0-.19.19-.19.19-.38,19.91,4.36,19.53,21.43,19.53,21.43-.76,6.83,4.74,14.03,4.74,14.03,2.84,5.31,3.22,11.95,3.22,11.95-.95.76-.76,5.31-.76,5.31,3.98,9.67-11.57,16.12-11.57,16.12-2.47-.38-4.17.19-5.5.95-6.07-4.17-13.27-6.45-20.29-9.67Z"/>
    <path class="cls-1" d="m467.31,463.43v-3.41c0-.19,0-.38,0-.76v-.76c3.03,0,13.65.57,21.81,6.83,0,0-10.62.57-10.62,4.74,0,0-3.22,5.69-5.69,6.07,0,0-4.17,3.22-4.17,8.72,0,0-.76-13.08-1.52-20.86.19,0,.19-.38.19-.57Z"/>
  </g>
  <g>
    <path class="cls-5" d="m1091.16,623.62c-.72,12.37-3.85,15.47-3.85,15.47l-92.39,34.26c-4.01,1.33-8.34,1.38-12.39.16-26.47-7.97-30.98-18.74-30.98-18.74-12.47-8.6-23.06-21.96-28.26-29.16-2.16-2.98-4.63-5.72-7.45-8.1-9.9-8.34-22.89-23.3-22.89-23.3-15.76-9.4-18.1-18.62-18.1-18.62-2.81-13.67,10.65-21.85,10.65-21.85,17.38-14.86,31.76,4.38,31.76,4.38,3.63,5.57,10.53,24.63,10.53,24.63,9.3,8.19,23.05,24.91,23.05,24.91,10.57,15.17,19.15,23.47,24.42,27.73,3.33,2.69,7.34,4.38,11.57,4.99,39.94,5.79,77.29-9.27,77.29-9.27l23.46-11.13,1.88.96c1,.51,1.75,1.54,1.69,2.66Z"/>
    <path class="cls-5" d="m876.94,784.61l-2.71-2.85c-6.14-6.44-13.72-11.35-22.11-14.32-11.03-3.9-28.06-2.69-34.16-8.68-8.03-7.89-13.1-18.32-14.64-29.47-1.25-9.07-1.01-22.87,3.59-29.55,0,0,13.19-17.4,33.29-11.58,0,0,36.4,24.66,49.91,42.92,0,0,24.14,20.5,27.8,25.18l44.01,34.3c1.99,2.64,10.34,15.6,10.34,15.6,10.97,22.6,3.67,32.49,3.67,32.49-22.08,36.81-80.92,65.01-87.01,69.45-6.25,4.33-23.39,19.87-23.39,19.87-.96.99-7.4,14.78-7.31,22.71.07,6.14-1.4,20.58,1.66,27.15.67,1.45.64,3.12-.18,4.49h0c-1.38,2.29-3.4,4.14-5.8,5.31h0c-.65.32-1.4.38-2.07.13-.04-.01-.08-.03-.12-.05-3.15-1.22-5.32-4.1-5.97-7.42-1.06-5.39-3.84-13.72-3.84-13.72-10.43-17.78-18.57-24.75-18.57-24.75-1.47-1.25-2.2-5.95-2.2-5.95-1.38-7.48,7.1-7.94,7.1-7.94,16.55-1.67,29.79-18.64,29.79-18.64,1.97-7.27,32.47-46.27,32.47-46.27,3.43-8.42,15.12-14.65,23.23-18.08,6.09-2.58,10.51-7.99,11.91-14.45.99-4.56-.39-4.11-3.03-6.98l-28.43-25c-6.33-3.87-12.12-8.55-17.24-13.92Z"/>
    <polygon class="cls-4" points="910.82 540.05 909.36 543.38 896.12 543.38 896.79 531.97 905.39 529.8 910.82 540.05"/>
    <path class="cls-2" d="m918.99,560.69c.37.66.79,1.29,1.25,1.89,3.09,3.97,7.46,10.62,7.43,10.22,16.5,19.93-20.2,69.41-20.2,69.41-1.84,1.94-12.21,24.47-12.21,24.47-4.49,11.86-19.19,35.31-19.19,35.31-1.4.88-8.64,15.35-8.64,15.35-5.93,9.81-14.3,16.96-14.3,16.96l2.41-7.32c1.87-10.04.38-16.48.38-16.48-3.93-26.16-26.79-21.69-26.79-21.69l-23.06,50.16s-.56-1.24-2.12-2.81c-1.24-1.25-2.86-2.03-4.59-2.39-7.37-1.54-11.78-6.77-11.78-6.77-1.11-1.21-2.05-2.84-2.85-4.6-3.01-6.66-3.36-14.25-1.36-21.28,10.32-36.33,35.53-34.47,35.53-34.47,2.82-.29,12.03-15.36,12.03-15.36,0,0-.12.78.07-.18.19-.96,2.9-4,2.9-4l8.24-11.35,5.55-7.89c2.64-2.86,9.01-16.23,9.01-16.23,4.32-11.56,3.78-17.26,3.22-19.4-.28-1.1-.53-2.2-.65-3.33-.64-5.73-1.97-20.68.85-26.38,0,0,4.94-26.06,15.8-30.55l33.43,11.41,9.63,17.3Z"/>
    <path class="cls-4" d="m901.12,539.75s-15.71-26.3-10.27-28.59c0,0,14.96-2.18,10.28-13.47,0,0-10.63-25.04,32.92-16.79,0,0,2.88,6.6,1.45,29-.5,7.76-2.66,15.36-6.5,22.11-.03.06-.07.12-.11.18-.36.63-.88,1.17-1.48,1.57l-4.94,3.31c-1.92,1.29-4.12,2.1-6.42,2.36l-5.23.6c-1.09.12-2.18.15-3.27.09l-6.43-.39Z"/>
    <path class="cls-1" d="m933.94,489.62s8.96-5-2-12.02c0,0-39.93-24.71-63.23.56l-6.39,11.15s4.73-24.86-19.16-17.31c0,0-14.76,1.5-13.61,13.14,0,0-17.39,21.88,3.93,31.57,0,0,21.41,6.97,24.04-8.81,0,0-.54,11.3,7.65,21.38,0,0,3.95,4.21,1.08,5.38h0c1.19,1.48,2.91,2.41,4.79,2.6,7.82.77,28.75,2.86,31.48,3.41,0,0-10.27-15.55-10.61-23.06,0,0-.62-4.57.76-6.3,0,0,.19-.43.81-.45l.63-.03s8.35,2.36,8.78-6.64c0,0,.16-1.05-.08-1.67,0,0-2.16-10.97,5.39-14.86,0,0,4.86-3.35,16.47-.53-.19.43,6.28.95,9.27,2.49Z"/>
    <path class="cls-5" d="m1087.23,639.09c.01.26,24.06-32.54,19.98-31.28-.59.18-8.23,3.62-8.23,3.62l-11.47,8.57-.28,19.09Z"/>
    <path class="cls-3" d="m716.26,671.26c-.21-.16,9.52,38.52,11.09,34.55.22-.57,2.29-8.69,2.29-8.69l2.77-16.12-16.15-9.73Z"/>
    <path class="cls-3" d="m793.38,736.93s-3.23,23.17-7.22,32.95c0,0-3.01,6.86-4.59,13.28l-4.74,14.67s-12.83,39.58-18.03,48.25c0,0-24.11,39.76-26.48,47.09,0,0-8.98,18.95-11.43,33.1,0,0-15.73,44.73-16.11,52.26,0,0-.22,9.63-16.03,14.8,0,0-8.19,2.26-5.24,9.28,0,0,1.04,2.68,2.3,4.3.94,1.2,1.74,2.49,2.28,3.91,2.37,6.26,7.55,22.05,7.55,40.34,0,0,.69,8.03,3.1,10.67,0,0,2.29,2.41,6.77-.8,0,0,3.28-4.73,5.05-8.53.37-.8.64-1.64.84-2.5,1.78-7.74,11.9-51.68,13.01-53.49,0,0,7.71-25.49,12.88-31.06,5-5.64,34.88-47.92,48.58-88.6,0,0,11.14-22.22,13.63-31.37,0,0,8.98-18.95,11.74-20.11,0,0,28.45-49.83,36.89-73.57,0,0,9.12-21.37,11.05-23.07l4.45-5.83s-4.4,4.19-8.85,6.94c0,0,9.63-20.56-5.76-39.29,0,0-13.43-13.37-28.99-7.27,0,0-19.42,1.83-24.18,34.33,0,0-.55,1.85-1.39,10.02l-1.1,9.3Z"/>
    <path class="cls-3" d="m727.49,683.45c-11.65-6.5-11.23-11.31-11.23-11.31l5.84-46.86c.63-5.04,2.94-9.73,6.59-13.27,21.98-21.33,44.47-40.51,44.47-40.51,13.82-6.21,30.74-8.34,39.58-9.06,3.67-.3,7.3-.99,10.78-2.17,12.26-4.14,31.79-7.5,31.79-7.5,16.21-8.6,25.3-5.83,25.3-5.83,13.15,4.68,13.17,20.44,13.17,20.44,3.7,22.56-18.45,20.86-18.45,20.86-6.65.22-28.27.28-28.27.28-11.82,3.71-33.25,6.8-33.25,6.8-24.26,1.55-52.3,17.11-63.71,24.05-3.36,2.04-5.85,5.25-7.01,9-7.28,23.57-7.92,29.83-7.92,29.83l-2.72,24.09-1.79,1.11c-.96.59-2.17.61-3.15.06Z"/>
  </g>
  <g class="cls-6">
    <polygon class="cls-4" points="1322.86 532.34 1321.39 535.68 1308.16 535.68 1308.83 524.26 1317.43 522.1 1322.86 532.34"/>
    <path class="cls-3" d="m1143.56,639.91c-9.64-9.22-8.03-13.77-8.03-13.77l17.45-43.88c1.88-4.72,5.3-8.68,9.72-11.18,26.64-15.11,53.23-28.02,53.23-28.02,14.94-2.53,31.85-.34,40.59,1.2,3.63.64,7.31.88,10.98.61,12.91-.92,32.65.75,32.65.75,17.85-4.24,25.95.73,25.95.73,11.55,7.84,7.6,23.09,7.6,23.09-2.1,22.77-23.11,15.54-23.11,15.54-6.49-1.46-27.43-6.85-27.43-6.85-12.38.61-33.89-1.79-33.89-1.79-23.87-4.61-54.93,3.4-67.71,7.24-3.77,1.13-6.98,3.6-9.05,6.95-12.98,20.98-15.17,26.87-15.17,26.87l-8.7,22.63-2.02.62c-1.08.33-2.25.05-3.07-.73Z"/>
    <path class="cls-3" d="m1123.44,1042.29c1.78-7.74,11.9-51.68,13.01-53.49,0,0,7.71-25.49,12.88-31.06,5-5.64,34.88-47.92,48.58-88.6,0,0,11.14-22.22,13.63-31.37,0,0,8.98-18.95,11.74-20.11,0,0,35.22-52.24,43.66-75.98,0,0,2.34-18.96,4.28-20.66l6.34-9.45s-6.3,7.81-10.74,10.56c0,0,9.63-20.56-5.76-39.29,0,0-13.43-13.37-28.99-7.27,0,0-19.42,1.83-24.18,34.33,0,0-.55,1.85-1.39,10.02l-1.96.24s2.05,3.12.86,9.07l-1.27,8.2s-1.96,14.97-5.95,24.75c0,0-3.01,6.86-4.59,13.28l-4.74,14.67s-12.83,39.58-18.03,48.25c0,0-24.11,39.76-26.48,47.09,0,0-8.98,18.95-11.43,33.1,0,0-15.73,44.73-16.11,52.26,0,0-.22,9.63-16.03,14.8,0,0-8.19,2.26-5.24,9.28,0,0,1.04,2.68,2.3,4.3.94,1.2,1.74,2.49,2.28,3.91,2.37,6.26,7.55,22.05,7.55,40.34,0,0,.69,8.03,3.1,10.67,0,0,2.29,2.41,6.77-.8,0,0,3.28-4.73,5.05-8.53.37-.8.64-1.64.84-2.5Z"/>
    <path class="cls-2" d="m1287.96,524.26l33.43,11.41c-1.78,5.3-27.69,13.16-27.69,13.16-2.33,7.14-4.37,15.37-4.37,15.37,9.54,16.63,24.86,12.79,24.86,12.79,13.65-7.86,16.07-22.25,16.07-22.25,4.14,2.55,9.47,10.78,9.44,10.35,16.5,19.93-20.2,69.41-20.2,69.41-1.84,1.94-12.21,24.47-12.21,24.47-4.49,11.86-19.19,35.31-19.19,35.31-1.4.88-8.64,15.35-8.64,15.35-5.93,9.81-14.3,16.96-14.3,16.96l2.41-7.32c1.87-10.04.38-16.48.38-16.48-3.93-26.16-26.79-21.69-26.79-21.69l-23.06,50.16s-.56-1.24-2.12-2.81c-1.24-1.25-2.86-2.03-4.59-2.39-7.37-1.54-11.78-6.77-11.78-6.77-1.13-1.24-2.09-2.9-2.89-4.7-3-6.69-3.29-14.28-1.28-21.33,10.34-36.18,35.49-34.33,35.49-34.33,2.82-.29,12.03-15.36,12.03-15.36,0,0-.12.78.07-.18.19-.96,2.9-4,2.9-4l8.24-11.35,5.55-7.89c2.64-2.86,9.01-16.23,9.01-16.23,4.13-11.06,3.82-16.75,3.3-19.1-.39-1.75-.72-3.5-.9-5.28-.66-6.56-1.56-19.51,1.03-24.72,0,0,4.94-26.06,15.8-30.55Z"/>
    <path class="cls-5" d="m1281.28,781.45l-2.71-2.85c-6.14-6.44-13.72-11.35-22.11-14.32-11.03-3.9-20.37-7.23-26.47-13.22-8.03-7.89-13.1-18.32-14.64-29.47-1.25-9.07-1.01-22.87,3.59-29.55,0,0,13.19-17.4,33.29-11.58,0,0,36.4,24.66,49.91,42.92,0,0,24.14,20.5,27.8,25.18l44.01,34.3c1.99,2.64,10.34,15.6,10.34,15.6,10.97,22.6,3.67,32.49,3.67,32.49-22.08,36.81-80.92,65.01-87.01,69.45-6.25,4.33-23.39,19.87-23.39,19.87-.96.99-7.4,14.78-7.31,22.71.07,6.18-1.42,20.76,1.72,27.27.67,1.4.56,3.04-.24,4.37h0c-1.38,2.29-3.4,4.14-5.8,5.31h0c-.65.32-1.4.38-2.07.13-.04-.01-.08-.03-.12-.05-3.15-1.22-5.32-4.1-5.97-7.42-1.06-5.39-3.84-13.72-3.84-13.72-10.43-17.78-18.57-24.75-18.57-24.75-1.47-1.25-2.2-5.95-2.2-5.95-1.38-7.48,7.1-7.94,7.1-7.94,16.55-1.67,21.96-21.73,21.96-21.73,1.97-7.27,32.47-46.27,32.47-46.27,5.42-13.29,37.15-20.91,37.15-20.91,1.88-3.22.59-10.09-1.24-16.34l-32.09-19.64c-6.33-3.87-12.12-8.55-17.24-13.92Z"/>
    <path class="cls-4" d="m1313.16,532.04s-15.71-26.3-10.27-28.59c0,0,14.96-2.18,10.28-13.47,0,0-10.63-25.04,32.92-16.79,0,0,2.88,6.6,1.45,29-.5,7.76-2.66,15.36-6.5,22.11-.03.06-.07.12-.11.18-.36.63-.88,1.17-1.48,1.57l-4.94,3.31c-1.92,1.29-4.12,2.1-6.42,2.36l-5.23.6c-1.09.12-2.18.15-3.27.09l-6.43-.39Z"/>
    <path class="cls-5" d="m1504.05,614.38c-.72,12.37-3.85,15.47-3.85,15.47l-92.39,34.26c-4.01,1.33-8.34,1.38-12.39.16-26.47-7.97-30.98-18.74-30.98-18.74-12.47-8.6-23.06-21.96-28.26-29.16-2.16-2.98-4.63-5.72-7.45-8.1-9.9-8.34-22.89-23.3-22.89-23.3-15.76-9.4-18.1-18.62-18.1-18.62-2.81-13.67,10.65-21.85,10.65-21.85,17.38-14.86,31.76,4.38,31.76,4.38,3.63,5.57,10.53,24.63,10.53,24.63,9.3,8.19,23.05,24.91,23.05,24.91,10.57,15.17,19.15,23.47,24.42,27.73,3.33,2.69,7.34,4.38,11.57,4.99,39.94,5.79,77.29-9.27,77.29-9.27l23.46-11.13,1.88.96c1,.51,1.75,1.54,1.69,2.66Z"/>
    <path class="cls-1" d="m1345.97,481.91s8.96-5-2-12.02c0,0-39.93-24.71-63.23.56l-6.39,11.15s4.73-24.86-19.16-17.31c0,0-14.76,1.5-13.61,13.14,0,0-17.39,21.88,3.93,31.57,0,0,21.41,6.97,24.04-8.81,0,0-.54,11.3,7.65,21.38,0,0,3.95,4.21,1.08,5.38h0c1.19,1.48,2.91,2.41,4.79,2.6,7.82.77,28.75,2.86,31.48,3.41,0,0-10.27-15.55-10.61-23.06,0,0-.62-4.57.76-6.3,0,0,.19-.43.81-.45l.63-.03s8.35,2.36,8.78-6.64c0,0,.16-1.05-.08-1.67,0,0-2.16-10.97,5.39-14.86,0,0,4.86-3.35,16.47-.53-.19.43,6.28.95,9.27,2.49Z"/>
    <path class="cls-5" d="m1500.2,629.85c.01.26,24.06-32.54,19.98-31.28-.59.18-8.23,3.62-8.23,3.62l-11.47,8.57-.28,19.09Z"/>
    <path class="cls-3" d="m1135.46,626.54c-.17-.2-.48,39.68,2.03,36.22.36-.49,4.41-7.84,4.41-7.84l6.74-14.9-13.18-13.49Z"/>
  </g>
</svg>
