<?xml version="1.0" encoding="UTF-8"?>
<svg id="Layer_1" data-name="Layer 1" xmlns="http://www.w3.org/2000/svg" viewBox="0 0 3240 1080">
  <defs>
    <style>
      .cls-1 {
        fill: #757373;
      }

      .cls-2 {
        fill: #fff;
      }

      .cls-3 {
        fill: #bcbab8;
      }

      .cls-4 {
        fill: #c9c9c9;
      }

      .cls-5 {
        fill: #aba9a8;
      }

      .cls-6 {
        fill: none;
      }

      .cls-7 {
        opacity: .3;
      }
    </style>
  </defs>
  <rect y="-.09" width="3240" height="1080"/>
  <g>
    <path class="cls-2" d="m2086.45,1084.59c.07-.32.17-.63.24-1.11.48-2.38.76-5.08.87-7.94.14-3.02.21-6.03.17-9.05-.03-2.86-.14-5.71-.48-8.25-.17-1.11-.38-2.06-.62-2.86-.07-.32-.17-.48-.24-.79h-113.1l-28.81.16-7.69.16c-1.94-.32-63.75.16-65.69-1.11-.69-.48-1.04,1.59-.97,7.62.03,3.65,0,7.14.03,10.79,0,13.49-.14,12.38,1.52,12.38h214.76Z"/>
    <path class="cls-2" d="m2010.58,755.91c-.65-.1-1.3-.25-2.28-.35-4.89-.7-10.43-1.1-16.29-1.25-6.19-.2-12.38-.3-18.57-.25-5.86.05-11.73.2-16.94.7-2.28.25-4.24.55-5.86.9-.65.1-.98.25-1.63.35v110.07h0v53.7l.33,41.72.33,11.13c-.65,2.81.33,92.31-2.28,95.12-.98,1,3.26,1.5,15.64,1.4,7.49-.05,14.66,0,22.15-.05,27.69,0,25.41.2,25.41-2.21v-310.99h0Z"/>
    <path class="cls-2" d="m1953.73,739.93c-14.83-.01-29.52,2.91-43.39,8.51-.16.07-.33.13-.49.2-13.59,5.46-23.83,17.65-27.43,25.96l-1.87,7.82c-.94,11.36-2.98,39.27-2.98,39.27,3.57,3.27,6.64-6.55,6.64-6.55l3.06-25.64c3.57-35.46,53.11-34.91,53.11-34.91l137.36,4.36c8.11-4.61,11.33-20.18,1.46-18.99-3.78.46-7.65.07-11.47.07l-114-.11Z"/>
  </g>
  <g>
    <path class="cls-2" d="m1580.08,1080.32c.13-.3.33-.59.46-1.04.93-2.23,1.45-4.76,1.65-7.43.26-2.82.4-5.65.33-8.47-.07-2.67-.26-5.35-.93-7.73-.33-1.04-.73-1.93-1.19-2.67-.13-.3-.33-.45-.46-.74h-215.95l-55.01.15-14.68.15c-3.7-.3-121.73.15-125.43-1.04-1.32-.45-1.98,1.49-1.85,7.13.07,3.42,0,6.69.07,10.11,0,12.63-.26,11.59,2.91,11.59h410.08Z"/>
    <path class="cls-2" d="m1578.12,975.27h0c-1.4-3.6-5.17-5.68-8.96-4.94l-137.05,22.55h0l-69.46,13.79-53.93,10.86-14.37,3c-3.69.43-122.47,28.69-126.33,28.24-1.38-.18-1.66,1.84-.43,7.36.73,3.34,1.3,6.56,2.03,9.9,2.46,12.39,112.72-12.83,109.65-13.61-36-9.19,257.13-48.1,295.3-54.5,3.19-.53,5.52-3.29,5.52-6.53v-5.62c0-3.59-.67-7.15-1.97-10.5Z"/>
  </g>
  <path class="cls-2" d="m.2,1059.63c-.66,6.76.54,13.52,0,20.28,433.72,0,873.51,0,1029.6,0,1.63,0,3.26-.04,4.9-.05,2.44,0,3.56-1.11,3.57-3.22.02-4.9.06-9.79.07-14.69,0-2.18-1.18-3.05-3.69-2.88"/>
  <path class="cls-2" d="m2299.12,1059.63c-.6,6.76.49,13.52,0,20.28,393.09,0,791.68,0,933.15,0,1.48,0,2.96-.04,4.44-.05,2.21,0,3.23-1.11,3.23-3.22.02-4.9.05-9.79.07-14.69,0-2.18-1.07-3.05-3.35-2.88"/>
  <g class="cls-7">
    <path class="cls-3" d="m696.17,774.43c-11.49-3.03-12.2-7.27-12.2-7.27l-5.34-41.73c-.57-4.49.39-9.05,2.75-12.91,14.24-23.27,29.4-44.81,29.4-44.81,10.55-8.42,24.68-14,32.15-16.58,3.1-1.07,6.08-2.47,8.83-4.26,9.67-6.29,25.77-13.51,25.77-13.51,12.08-11.01,20.54-10.63,20.54-10.63,12.38,1.13,15.89,14.72,15.89,14.72,8.19,18.65-11.31,22.08-11.31,22.08-5.69,1.66-24.34,6.5-24.34,6.5-9.38,5.82-27.18,13.23-27.18,13.23-20.6,6.71-41.35,26.35-49.65,34.86-2.45,2.51-3.89,5.82-4.06,9.32-1.07,21.95-.23,27.5-.23,27.5l2.98,21.39-1.3,1.35c-.7.72-1.74,1.01-2.71.75Z"/>
    <path class="cls-3" d="m625.66,1050.88c1.79-6.84,11.99-45.7,13.03-47.29,0,0,7.55-22.49,12.31-27.31,4.6-4.89,32.35-41.73,45.65-77.59,0,0,10.52-19.49,12.99-27.57,0,0,8.51-16.64,10.99-17.59,0,0,32.77-45.57,40.93-66.48,0,0,2.6-16.82,4.37-18.29l5.91-8.24s-5.82,6.78-9.85,9.11c0,0,9.13-18.04-4.07-35.14,0,0-11.6-12.26-25.62-7.25,0,0-17.34,1.1-22.46,29.92,0,0-.54,1.63-1.51,8.88l-1.76.16s1.74,2.83.53,8.1l-1.35,7.27s-2.15,13.28-5.97,21.88c0,0-2.86,6.03-4.44,11.7l-4.62,12.93s-12.5,34.9-17.36,42.48c0,0-22.54,34.75-24.85,41.22,0,0-8.51,16.64-11.07,29.17,0,0-15.22,39.41-15.75,46.1,0,0-.46,8.57-14.67,12.75,0,0-7.35,1.79-4.91,8.12,0,0,.85,2.42,1.94,3.89.8,1.09,1.48,2.27,1.92,3.55,1.94,5.64,6.13,19.84,5.64,36.12,0,0,.4,7.17,2.47,9.59,0,0,1.98,2.21,6.05-.53,0,0,3.05-4.13,4.72-7.46.35-.7.62-1.44.82-2.2Z"/>
    <path class="cls-2" d="m786.13,594l29.46,11.06c-1.72,4.67-25.01,10.97-25.01,10.97-2.27,6.3-4.31,13.57-4.31,13.57,8.05,15.07,21.79,12.06,21.79,12.06,12.37-6.64,14.91-19.38,14.91-19.38,3.62,2.38,8.14,9.86,8.13,9.47,14.15,18.19-19.86,61.26-19.86,61.26-1.69,1.68-11.53,21.46-11.53,21.46-4.32,10.44-18.04,30.92-18.04,30.92-1.27.74-8.11,13.43-8.11,13.43-5.55,8.58-13.19,14.71-13.19,14.71l2.34-6.45c1.93-8.89.78-14.67.78-14.67-2.8-23.41-23.27-20.04-23.27-20.04l-21.89,44.05s-.46-1.12-1.81-2.56c-1.07-1.15-2.5-1.88-4.02-2.25-6.53-1.57-10.31-6.34-10.31-6.34-.97-1.13-1.78-2.64-2.45-4.26-2.49-6.04-2.54-12.8-.56-19.03,10.19-31.94,32.53-29.61,32.53-29.61,2.52-.18,11.13-13.36,11.13-13.36,0,0-.12.69.07-.16.2-.85,2.69-3.48,2.69-3.48l7.64-9.89,5.16-6.88c2.43-2.47,8.46-14.21,8.46-14.21,3.98-9.74,3.85-14.82,3.45-16.92-.3-1.57-.55-3.14-.66-4.73-.41-5.86-.86-17.42,1.58-21.99,0,0,5.1-23.07,14.89-26.78Z"/>
    <path class="cls-5" d="m770.86,1025.79c.75-1.16.89-2.62.33-3.88-2.62-5.89-.9-18.83-.79-24.33.13-7.06,6.24-19.16,7.12-20.02,0,0,12.19-20.36,17.87-24.04,5.54-3.79,42.11-35.82,62.77-68.01,0,0,6.76-8.6-2.4-29.03,0,0-7.08-11.77-8.78-14.17l-18.23-24.63-13.91-20.81c-3.13-4.27-21.44-25.14-21.44-25.14-11.54-16.63-43.29-39.57-43.29-39.57-17.74-5.73-29.96,9.41-29.96,9.41-4.28,5.82-4.86,18.11-3.99,26.22,1.07,9.97,5.3,19.39,12.24,26.64,5.26,5.5,13.49,8.72,23.21,12.49,7.39,2.87,14.01,7.44,19.3,13.34l8.98,10.02s8.86,10.88,18.2,21.63c4.47,5.14,7.69,11.25,9.41,17.84,1.46,5.61,2.43,11.77.67,14.58,0,0-11.87,14.43-17.06,26.12,0,0-24.71,40.89-26.67,47.31,0,0-5.37,17.72-20.15,18.76,0,0-7.56.18-6.54,6.88,0,0,.52,4.21,1.8,5.36,0,0,7.06,6.43,15.87,22.54,0,0,2.25,7.49,3.05,12.32.49,2.97,2.35,5.6,5.12,6.77.03.01.07.03.1.04.59.24,1.26.21,1.85-.06h0c2.17-.98,4.02-2.57,5.31-4.58h0Z"/>
    <path class="cls-4" d="m813.85,604.64s-9.61-25.55-4.48-26.69c0,0,13.46.45,11.15-10.18,0,0-5.36-23.64,31.52-9.51,0,0,1.48,6.24-3.32,25.66-1.66,6.72-4.76,13.04-9.2,18.36-.04.05-.08.1-.12.14-.42.5-.95.88-1.55,1.14l-4.85,2.12c-1.89.82-3.95,1.19-6,1.05l-4.68-.3c-.97-.06-1.94-.21-2.88-.44l-5.58-1.36Z"/>
    <path class="cls-1" d="m851.52,555.81c-8.42-6.64-35.91-25.76-56.35-10.3l-7.37,8.76s8.08-21.05-14.06-18.2c0,0-13.18-1.02-14.01,9.37,0,0-18.71,16.43-1.55,28.3,0,0,17.67,9.5,22.47-3.92,0,0-2.26,9.82,3.32,19.95,0,0,2.8,4.31.09,4.89h0c.81,1.48,2.17,2.57,3.79,3.03,6.73,1.91,24.75,7.05,27.06,7.97,0,0-6.55-15.26-5.66-21.89,0,0,.18-4.1,1.66-5.4,0,0,.23-.34.79-.27l.55.07s6.94,3.39,8.74-4.44c0,0,.31-.9.2-1.47,0,0-.16-9.96,7.07-12.18,0,0,2-1.02,7.84-.94,0,0,9.02,1.01,14.28.53,1.95-.18,2.65-2.66,1.12-3.87Z"/>
    <path class="cls-5" d="m966.96,741.45c-2.32,11.65-6.52,12.62-6.52,12.62l-70.85-13.56c-26.31-13.59-52.73-29.88-52.73-29.88-9.04-10.02-15.48-23.78-18.51-31.09-1.26-3.03-2.84-5.91-4.79-8.55-6.86-9.27-15.05-24.9-15.05-24.9-11.73-11.39-11.86-19.86-11.86-19.86.38-12.43,13.73-16.75,13.73-16.75,18.12-9.31,22.73,9.94,22.73,9.94,2,5.58,7.97,23.9,7.97,23.9,6.38,9.01,14.86,26.33,14.86,26.33,10.26,26.01,36.79,44.27,36.79,44.27,33.6,15.64,62.57,22.07,62.57,22.07l19.32,1.59,1.43,1.22c.76.65,1.11,1.67.92,2.66Z"/>
  </g>
  <g>
    <path class="cls-4" d="m1528.38,425.53s-22.66,1.77-25.13,3.05c-.18-.06,2.69-.8-6.48-13.17,0,0,11.06-14.24,11.99-21.07,0,0,4.08-1.87,6.19-1.1,0,0,4.99,1.05,7.24-6.09,0,0-.33-11.48,11.17-14,0,0,4.56-2.1,5.88-11.57,0,0,5.55-19.27,25.09-16.61,0,0,8.32-4.58,11.29,23.43,0,0,1.61,13.65-1.72,19.39l-5.68,9.47s-4.36,8.43-9.11,11.77c-2.7,1.9-7.62,1.96-10.61.57l-7.97-1.55-12.16,17.46Z"/>
    <path class="cls-6" d="m1456.1,538.5s-60.2-1.59-59.93-22.21c0,0-2.88-4.06-.3-8.88,0,0,29.62-103.03,102.34-106.17"/>
    <path class="cls-2" d="m1471.01,443.89c-5.64-33.18,23.19-31.05,23.19-31.05,6.07,2.45,19.64-.29,19.64-.29,3.47-1.3-6-13.39-6-13.39l-4.61,1.68-16.07,1.42c-62.32,6.8-90.47,104.79-90.47,104.79-4.03,5.48,3.08,15.89,3.73,15.74,16.4,15.45,54.94,21.1,54.94,21.1.53.19,3.87-6.08,3.87-6.08.57-6.37,3.49-8.87,3.49-8.87,3.41-6.51,2.9-8.89,2.9-8.89,6.04-23.28,27.93-34.49,27.93-34.49l18.55-10.26c16.7-9.56,27.51-23.69,27.51-23.69,4.31-6.78,2.46-13.43,2.46-13.43l-2.93.91-6.75,2.08c-1.64,1.19-16.72,6.74-16.72,6.74-5.35,2.6-21.64,3.54-21.64,3.54l-23.03-7.56Z"/>
    <path class="cls-3" d="m1466.29,435.94c2.24-23.1,27.21-23.1,27.21-23.1,9.11,1.78,19.64-.29,19.64-.29,3.32-1.96,17.71-7.99,26.4-11.54.35.13.59.02,1.01-.03,1.07-.2,2.27-.75,3.41-1.13.72-.33,1.37-.49,2.27-.75l1.16-.14c.64.03,1.07-.01,1.57-.24,5.01.46,12.77-.05,19.53-.53.06-.18.24-.11.42-.05,3.26-.19,6.43.39,9.58-.04,1.01-.03,2.08-.23,3.15-.43,1.29.28,2.47.32,3.78,0,7.33.13,22.76-8.71,22.76-8.71,35.68-16.67,64.32-10.04,64.32-10.04,7.55,2.2,25.52-1.1,25.52-1.1,14.44-.23,26.67-10.64,26.67-10.64l-7.49,26.12c-4.82,8.18-15.52,2.62-15.52,2.62l.08-.77c-7.59.58-14.86,4.06-14.73,3.71-15.78,10.3-60.26,17.93-60.26,17.93-7.95,2.63-32.08,2.66-32.08,2.66-10.06.26-19.05,5.69-19.05,5.69-1.29,1.32-8.75,5.33-8.75,5.33-5.54,3.13-25.01,8.87-25.01,8.87l-10.09,3.04c-.74.92-16.2,6.42-16.2,6.42-4.93,2.56-21.13,2.77-21.13,2.77-1.39.02-2.92-.33-2.92-.33l-15.72-2.83c-5.92-1.07-10.1-6.48-9.52-12.47Z"/>
    <path class="cls-1" d="m1570.42,346.85s-3.77-14.55-22.33-16.65c0,0-23.35-2.08-35.98,13.17,0,0-10.65-22.88-22.65-8.79,0,0-16.33,3.72-11.49,21.85,0,0,6.02,23.56,22.6,12.16l4.28-.8s-2.65,5,.48,10.54c0,0,5.62,12.25,3.19,16.13,0,0,4.26-1.81,6.19-1.1,0,0,5.17,1.12,7.24-6.09,0,0-.28-11.07,11.17-14,0,0,3.65-1.24,5.52-9.51,0,0,2.17-10.16,10.57-15.61,0,0,6.65-4.51,14.64-2.94l1.18.04c.24-.11,3.3.23,5.39,1.6h0Z"/>
    <path class="cls-3" d="m1390.58,886.77c-.09-7.87-.54-52.75.11-54.76,0,0,1.51-26.44,5.22-33.03,3.52-6.62,22.55-54.46,26.31-96.99,0,0,5.59-24.08,5.87-33.51,0,0,4.26-20.42,6.66-22.18,0,0,21.88-58.72,24.51-83.64,0,0-2.15-18.88-.68-20.98l.46-6.99s-.8,5.39-4.45,9.09c0,0,4.52-22.12-14.72-36.64,0,0-26.73-8.15-41.29-1.3-1.99.94-3.37,2.82-3.82,4.98-.94,4.49-1.87,14.36,0,34.88,0,0-.1,1.92.99,10.01l-1.84.69s2.71,2.54,2.95,8.57l.68,8.22s1.6,14.93.02,25.32c0,0-1.31,7.34-1.34,13.91l-1.16,15.29s-3.18,41.26-6.19,50.86c0,0-14.04,44.06-14.63,51.7,0,0-4.26,20.42-3.34,34.67,0,0-4.79,46.92-3.39,54.28,0,0,2.03,9.36-12.05,18.04,0,0-7.39,4.1-2.9,10.19,0,0,1.63,2.35,3.23,3.62,1.19.94,2.26,2,3.11,3.25,3.75,5.5,12.44,19.55,16.71,37.24,0,0,2.54,7.6,5.48,9.59,0,0,2.78,1.79,6.36-2.35,0,0,2.05-5.3,2.88-9.38.18-.87.25-1.76.24-2.65Z"/>
    <path class="cls-3" d="m1717.2,393.31l14.11-18.15s15.05-9.4,10.79-9.77l-17.4,1.79-7.49,26.12Z"/>
  </g>
  <g class="cls-7">
    <path class="cls-5" d="m2091.83,111.3c2.48,3.85,5.45,7.36,8.81,10.47,10.22,9.46-2.19,18.49-2.19,18.49-8.51,5.83-25.87,80.46-25.87,80.46,2.25,10.82-25.57,40.2-25.57,40.2-12.58,13.93-21.2,60.84-21.2,60.84-1.32,5.5-7.87,29.5-7.87,29.5-.62,14.86-6.33,32.63-6.33,32.63-5.03,23.4-27.93,19.09-27.93,19.09-47.91-2.45-21.03-57.07-21.03-57.07,5.8-28.34,42.02-80.88,42.02-80.88,7.77-11.29,15.93-35.11,15.93-35.11,19.18-44.6,21.94-38.84,21.94-38.84,11.64-20.95,27.43-39.86,34.87-57.78,5.12-12.34-7.46-36.35,2.16-48.72,5.64-7.26,8.65,5.62,8.61,7.57-.14,6.77-.63,4.36,1.01,13.07l2.65,6.09Z"/>
    <path class="cls-2" d="m1958.63,356.19c-4.04,27.89,3.55,38.44,3.18,38.58,10.25,10.23,30.01,7.3,30.01,7.3,17.85-5.59,20.17-17.96,20.45-21.92.08-1.11.26-2.22.58-3.29.04-.12.79-2.22.79-2.22l.7-1.95.51.28.44,1.68-.09,5.83c.92,9.66-11.2,40.23-11.2,40.23-3.44,9.02-13.6,16.25-13.6,16.25-4.41,4.84-4.65,12.07-4.65,12.07-1.19,16.16,7.33,35.84,7.33,35.84,3.43,6.03,4.78,16.82,4.78,16.82-.38,6.86-6.63,30.42-6.63,30.42-3.93,18.52-8.25,25.85-8.25,25.85-.89,1.68-8.21,7.27-8.21,7.27l.56-1.89.73-1.87.32-1.38.94-2.2,2.87-6.95c2.66-5.03,1.8-7.76,1.8-7.76,3.7-8.1-1.5-21.6-1.5-21.6-8.81-13.69-22.42-5.58-22.42-5.58-14.14,3.09.51,35.43.51,35.43-.26,2.45-6.76.09-6.76.09-4.23-2.44-23.23-14.76-23.23-14.76-16.72-19.14-11.13-46.69-11.13-46.69.4-10.4,5.5-33.23,5.5-33.23.41-3.85,5.36-33.6,5.36-33.6,2.18-17.12,8.96-37.46,8.96-37.46,0,0,13.19-20.53,21.35-29.58Z"/>
    <path class="cls-3" d="m1956.03,552.13s-12.3-29.98,1.02-36.15c0,0,10.79-9.99,23.04-.64,0,0,9.5,8.82,8.02,16.8,0,0-.52,4.89-1.48,7.98l-1.59,8.46s-.02,1.09-.16,2.51l-.21,2.2s-.46,18.38.1,20.93c0,0,1.41,19.03,1.1,25.28,0,0,2.57,26.77,4.01,28.11,0,0,4.14,3.88,5.6,43.54,0,0-.22,30.02-4.11,47.26-.24,1.04-.05,2.14.52,3.04,1.98,3.15,7.29,10.27,15.97,12.54,1.06.28,1.38,1.6.55,2.3-1.67,1.41-4.46,3.11-8.13,2.97,0,0-17.52-.2-20.42-2.55,0,0-2.43-.07-4.86,1.53,0,0-4.07,3.71-3.65-1.78,0,0,6.37-28.06,5.17-32.54,0,0-.58-14.65-2.38-19.51,0,0-9.96-35.76-6.16-53.24,0,0-1.47-20.57-3.15-22.34.52-.08-10.38-51.68-8.82-56.72Z"/>
    <path class="cls-3" d="m2017.7,542.7c9.01-1.22,11.23-5.39,14.14-9.38,6.54-8.83,7.72-21.48,7.72-21.48l.2-1.05-.88.16-5.65.57-2.32,5.94-19.9.24-25-.05c-2.3.3-16.53-1.09-16.53-1.09,1.38,1.44-2.86,7.19-2.86,7.19,4.08-4,15.04-1.1,15.04-1.1,2.81.42,2.77,12.52,2.77,12.52,3.2,8.01,15.46,7.07,15.46,7.07l17.81.45Z"/>
    <path class="cls-3" d="m1986.51,541.26c.4-2.28-.09-3.88-.76-5.12,4-5.54,8.72-24.75,11.86-31.19,17.11,6.38,13.25-3.25,30.31,5.25.18,0,9.62,12.88,9.8,12.88"/>
    <path class="cls-1" d="m2025.54,535.41s2.02,6.21,7.75.23c0,0,19.73-24.56,6.83-42.2l-6.17-5.36s14.93,6.01,13.15-9.83c0,0,.88-9.39-6.53-10.11,0,0-11.51-13.54-20.18-1.43,0,0-6.98,12.5,2.54,16.08,0,0-6.99-1.72-14.28,2.14,0,0-13.6,2.01-13.98.07l-.22-.3s3.35,20.11,2.51,22.13c0,0,8.5.09,13.22.8,0,0,2.93.17,3.84,1.25,0,0,.24.17.18.56l-.06.39s-.03.33,5.53,1.71c0,0,.64.23,1.05.16,0,0,7.11,0,8.61,5.19,0,0,1.49,3.45-1.69,10.35-.24-.17-.77,6.48-2.1,8.16Z"/>
  </g>
</svg>