<?xml version="1.0" encoding="UTF-8"?>
<svg id="Layer_1" data-name="Layer 1" xmlns="http://www.w3.org/2000/svg" viewBox="0 0 3240 1080">
  <defs>
    <style>
      .cls-1 {
        fill: #757373;
      }

      .cls-2 {
        fill: #fff;
      }

      .cls-3 {
        fill: #bcbab8;
      }

      .cls-4 {
        fill: #c9c9c9;
      }

      .cls-5 {
        fill: #aba9a8;
      }

      .cls-6 {
        fill: none;
      }

      .cls-7 {
        opacity: .3;
      }
    </style>
  </defs>
  <rect y="-2.36" width="3240" height="1080"/>
  <g>
    <path class="cls-2" d="m2086.45,1082.33c.07-.32.17-.63.24-1.11.48-2.38.76-5.08.87-7.94.14-3.02.21-6.03.17-9.05-.03-2.86-.14-5.71-.48-8.25-.17-1.11-.38-2.06-.62-2.86-.07-.32-.17-.48-.24-.79h-113.1l-28.81.16-7.69.16c-1.94-.32-63.75.16-65.69-1.11-.69-.48-1.04,1.59-.97,7.62.03,3.65,0,7.14.03,10.79,0,13.49-.14,12.38,1.52,12.38h214.76Z"/>
    <path class="cls-2" d="m2010.58,753.65c-.65-.1-1.3-.25-2.28-.35-4.89-.7-10.43-1.1-16.29-1.25-6.19-.2-12.38-.3-18.57-.25-5.86.05-11.73.2-16.94.7-2.28.25-4.24.55-5.86.9-.65.1-.98.25-1.63.35v110.07h0v53.7l.33,41.72.33,11.13c-.65,2.81.33,92.31-2.28,95.12-.98,1,3.26,1.5,15.64,1.4,7.49-.05,14.66,0,22.15-.05,27.69,0,25.41.2,25.41-2.21v-310.99h0Z"/>
    <path class="cls-2" d="m1953.73,737.67c-14.83-.01-29.52,2.91-43.39,8.51-.16.07-.33.13-.49.2-13.59,5.46-23.83,17.65-27.43,25.96l-1.87,7.82c-.94,11.36-2.98,39.27-2.98,39.27,3.57,3.27,6.64-6.55,6.64-6.55l3.06-25.64c3.57-35.46,53.11-34.91,53.11-34.91l137.36,4.36c8.11-4.61,11.33-20.18,1.46-18.99-3.78.46-7.65.07-11.47.07l-114-.11Z"/>
  </g>
  <g>
    <path class="cls-2" d="m1580.08,1078.06c.13-.3.33-.59.46-1.04.93-2.23,1.45-4.76,1.65-7.43.26-2.82.4-5.65.33-8.47-.07-2.67-.26-5.35-.93-7.73-.33-1.04-.73-1.93-1.19-2.67-.13-.3-.33-.45-.46-.74h-215.95l-55.01.15-14.68.15c-3.7-.3-121.73.15-125.43-1.04-1.32-.45-1.98,1.49-1.85,7.13.07,3.42,0,6.69.07,10.11,0,12.63-.26,11.59,2.91,11.59h410.08Z"/>
    <path class="cls-2" d="m1578.12,973.01h0c-1.4-3.6-5.17-5.68-8.96-4.94l-137.05,22.55h0l-69.46,13.79-53.93,10.86-14.37,3c-3.69.43-122.47,28.69-126.33,28.24-1.38-.18-1.66,1.84-.43,7.36.73,3.34,1.3,6.56,2.03,9.9,2.46,12.39,112.72-12.83,109.65-13.61-36-9.19,257.13-48.1,295.3-54.5,3.19-.53,5.52-3.29,5.52-6.53v-5.62c0-3.59-.67-7.15-1.97-10.5Z"/>
  </g>
  <path class="cls-2" d="m.2,1057.36c-.66,6.76.54,13.52,0,20.28,433.72,0,873.51,0,1029.6,0,1.63,0,3.26-.04,4.9-.05,2.44,0,3.56-1.11,3.57-3.22.02-4.9.06-9.79.07-14.69,0-2.18-1.18-3.05-3.69-2.88"/>
  <path class="cls-2" d="m2299.12,1057.36c-.6,6.76.49,13.52,0,20.28,393.09,0,791.68,0,933.15,0,1.48,0,2.96-.04,4.44-.05,2.21,0,3.23-1.11,3.23-3.22.02-4.9.05-9.79.07-14.69,0-2.18-1.07-3.05-3.35-2.88"/>
  <g class="cls-7">
    <path class="cls-5" d="m2091.83,109.04c2.48,3.85,5.45,7.36,8.81,10.47,10.22,9.46-2.19,18.49-2.19,18.49-8.51,5.83-25.87,80.46-25.87,80.46,2.25,10.82-25.57,40.2-25.57,40.2-12.58,13.93-21.2,60.84-21.2,60.84-1.32,5.5-7.87,29.5-7.87,29.5-.62,14.86-6.33,32.63-6.33,32.63-5.03,23.4-27.93,19.09-27.93,19.09-47.91-2.45-21.03-57.07-21.03-57.07,5.8-28.34,42.02-80.88,42.02-80.88,7.77-11.29,15.93-35.11,15.93-35.11,19.18-44.6,21.94-38.84,21.94-38.84,11.64-20.95,27.43-39.86,34.87-57.78,5.12-12.34-7.46-36.35,2.16-48.72,5.64-7.26,8.65,5.62,8.61,7.57-.14,6.77-.63,4.36,1.01,13.07l2.65,6.09Z"/>
    <path class="cls-2" d="m1958.63,353.92c-4.04,27.89,3.55,38.44,3.18,38.58,10.25,10.23,30.01,7.3,30.01,7.3,17.85-5.59,20.17-17.96,20.45-21.92.08-1.11.26-2.22.58-3.29.04-.12.79-2.22.79-2.22l.7-1.95.51.28.44,1.68-.09,5.83c.92,9.66-11.2,40.23-11.2,40.23-3.44,9.02-13.6,16.25-13.6,16.25-4.41,4.84-4.65,12.07-4.65,12.07-1.19,16.16,7.33,35.84,7.33,35.84,3.43,6.03,4.78,16.82,4.78,16.82-.38,6.86-6.63,30.42-6.63,30.42-3.93,18.52-8.25,25.85-8.25,25.85-.89,1.68-8.21,7.27-8.21,7.27l.56-1.89.73-1.87.32-1.38.94-2.2,2.87-6.95c2.66-5.03,1.8-7.76,1.8-7.76,3.7-8.1-1.5-21.6-1.5-21.6-8.81-13.69-22.42-5.58-22.42-5.58-14.14,3.09.51,35.43.51,35.43-.26,2.45-6.76.09-6.76.09-4.23-2.44-23.23-14.76-23.23-14.76-16.72-19.14-11.13-46.69-11.13-46.69.4-10.4,5.5-33.23,5.5-33.23.41-3.85,5.36-33.6,5.36-33.6,2.18-17.12,8.96-37.46,8.96-37.46,0,0,13.19-20.53,21.35-29.58Z"/>
    <path class="cls-3" d="m1956.03,549.87s-12.3-29.98,1.02-36.15c0,0,10.79-9.99,23.04-.64,0,0,9.5,8.82,8.02,16.8,0,0-.52,4.89-1.48,7.98l-1.59,8.46s-.02,1.09-.16,2.51l-.21,2.2s-.46,18.38.1,20.93c0,0,1.41,19.03,1.1,25.28,0,0,2.57,26.77,4.01,28.11,0,0,4.14,3.88,5.6,43.54,0,0-.22,30.02-4.11,47.26-.24,1.04-.05,2.14.52,3.04,1.98,3.15,7.29,10.27,15.97,12.54,1.06.28,1.38,1.6.55,2.3-1.67,1.41-4.46,3.11-8.13,2.97,0,0-17.52-.2-20.42-2.55,0,0-2.43-.07-4.86,1.53,0,0-4.07,3.71-3.65-1.78,0,0,6.37-28.06,5.17-32.54,0,0-.58-14.65-2.38-19.51,0,0-9.96-35.76-6.16-53.24,0,0-1.47-20.57-3.15-22.34.52-.08-10.38-51.68-8.82-56.72Z"/>
    <path class="cls-3" d="m2017.7,540.44c9.01-1.22,11.23-5.39,14.14-9.38,6.54-8.83,7.72-21.48,7.72-21.48l.2-1.05-.88.16-5.65.57-2.32,5.94-19.9.24-25-.05c-2.3.3-16.53-1.09-16.53-1.09,1.38,1.44-2.86,7.19-2.86,7.19,4.08-4,15.04-1.1,15.04-1.1,2.81.42,2.77,12.52,2.77,12.52,3.2,8.01,15.46,7.07,15.46,7.07l17.81.45Z"/>
    <path class="cls-3" d="m1986.51,539c.4-2.28-.09-3.88-.76-5.12,4-5.54,8.72-24.75,11.86-31.19,17.11,6.38,13.25-3.25,30.31,5.25.18,0,9.62,12.88,9.8,12.88"/>
    <path class="cls-1" d="m2025.54,533.14s2.02,6.21,7.75.23c0,0,19.73-24.56,6.83-42.2l-6.17-5.36s14.93,6.01,13.15-9.83c0,0,.88-9.39-6.53-10.11,0,0-11.51-13.54-20.18-1.43,0,0-6.98,12.5,2.54,16.08,0,0-6.99-1.72-14.28,2.14,0,0-13.6,2.01-13.98.07l-.22-.3s3.35,20.11,2.51,22.13c0,0,8.5.09,13.22.8,0,0,2.93.17,3.84,1.25,0,0,.24.17.18.56l-.06.39s-.03.33,5.53,1.71c0,0,.64.23,1.05.16,0,0,7.11,0,8.61,5.19,0,0,1.49,3.45-1.69,10.35-.24-.17-.77,6.48-2.1,8.16Z"/>
  </g>
  <g>
    <path class="cls-4" d="m2410.31,444.07s-7.73-14.78-13.11-18.19c0,0,0-4.16,1.46-5.63,0,0,2.81-3.79-2.34-8.43,0,0-9.79-4.14-7.48-14.78,0,0,0-4.65-7.47-9.4,0,0-14.08-12.08-4.33-27.5,0,0-4.35-9.71,20.36-1.44,0,0,3.51,1.42,8.2,7.38l6.04,7.38s4.04,4.99,5.3,9.25c0,0,3.8,7.98.52,16.19,0,0-1.72,4.4-4.03,8.2,0,0,10.03,7.36,11.5,8.33l.12.12s-.24,1.47-.49,1.96c0,0-.82,23.6-.69,26.17-.12.12.36-2.57-13.57.39Z"/>
    <path class="cls-6" d="m2534.89,485.54s-1.75,55.69-20.84,55.34c0,0-3.77,2.65-8.22.23,0,0-95.18-27.89-97.74-95.18"/>
    <path class="cls-2" d="m2424.23,428.11s43.85-9.48,52.61,6.01l9.41,17.21s10.27,20.31,31.78,26.01c0,0,2.21-.46,8.21,2.72,0,0,2.3,2.71,8.19,3.27,0,0,.32,1.6.14,2.08,0,0,.05,37.15-14.32,52.25.14.61-9.52,7.13-14.58,3.38,0,0-90.52-26.51-96.52-84.19l-1.24-14.88-1.53-4.27,17.84-9.6Z"/>
    <path class="cls-1" d="m2382.2,353.97s-14.95-.66-23.85,14.15c0,0-10.21,17.31-2.23,33.8,0,0-10,2.13-8.02,14.28,0,0,2.01,5.82,10.59,9.7,0,0,13.49,4.89,13.65-3.51l1.01-3.44s3.19,4.15,9.05,3.65c0,0,12.47-.02,14.8,3.52,0,0,.11-4.28,1.46-5.63,0,0,2.93-3.92-2.34-8.43,0,0-9.17-4.45-7.23-15.21,0,0,.17-4.1-6.07-8.86,0,0-4.94-3.07-6.3-12.24,0,0-.64-1.56-.04-4.23.72-3.22.05-7.61,2.93-9.22l6.55-3.65c0-.24,2.49-2.85.4-4l-3.08-.55-1.29-.15Z"/>
    <g>
      <path class="cls-4" d="m2661.8,457.7c-6.33,5.47-15.6,6.4-15.6,6.4-13.83.95-15.02-3.74-22.51-9.53-7.5-5.79-25.61-24.57-25.61-24.57l-30.12-36.66c-.28.55-.55,1.11-.82,1.66-3.74,7.42-7.63,14.76-11.64,22.03-1.89,3.43-3.81,6.85-5.76,10.26,2.29,3.3,4.06,6.61,4.78,7.93,0,0,6.29,12.76,17.46,18.56,0,0,24.18,15.52,30.36,17.83,0,0,15.97,3.96,30.98,12.16,3.05,1.66,5.15,4.5,6.55,7.67.96,2.17,4.24,3.79,7.12,2,0,0,3.11-2.27,5.18-5.9l17.46-26.76c6.16-10.88,2.79-10.65,2.79-10.65-2.34-1.08-10.63,7.56-10.63,7.56Z"/>
      <path class="cls-4" d="m2568.12,393.64c-4.84-5.89-25.13-4.17-25.13-4.17-11.73-.15-18.9,7.62-18.9,7.62-6.16,6.57-9.72,48.65-9.72,48.65-.54,5.18-14.7,58.7-14.7,58.7-2.57,19.74,6.7,27.07,6.7,27.07,9.15,15.9,28.06,12.93,28.06,12.93,6.96-1.42,16.22-8.63,17.67-16.52,1.65-8.99.09-14.26-.18-24.12l.7-29.35c.13-5.43-.29-10.86-1.26-16.21-1.88-10.33-4.7-27.69-3-30.36l1.53-.29,18.22-33.95Z"/>
    </g>
    <path class="cls-5" d="m2466.13,480.94s7.75-3.06,14.34-5.76,13.44-4.45,20.48-5.29l9.58-1.13s10.45,2.14,14.17-.17l24.22-49.75c2.59-5.32,6.5-9.88,11.35-13.26l7.73-5.38c1.2-.84,1.78-2.32,1.45-3.75l-1.41-6.25c-.62-2.76-3.06-4.74-5.89-4.77l-8.56-.12c-5.36-.07-10.3,2.88-12.78,7.63l-13.38,25.61-12.21,24.78c-.52,1.06-1.77,1.53-2.86,1.09h0c-3.34-1.35-6.9-2.11-10.5-2.23l-18.39-.63-29.1-2.79s-29.07-3.4-28.55,28.42c0,0,1.77,24.02,40.33,13.76Z"/>
  </g>
  <g class="cls-7">
    <path class="cls-3" d="m3073.61,791.77s5.34,24.68-3.17,54.02c0,0-7.5,46.02-5.84,46.52,0,0-4.33,28.84-2.67,34.35,0,0,.92,3.85-3.91,25.69,0,0-3.85,57.82-4.71,68.02,0,0-1.63,19.68,18.71,25.18,0,0,17.51,8.67-2.83,9.34,0,0-27.18-4.67-32.51-12.67,0,0-5.5-1.67-5.5-11l.83-31.01s1-18.01,2.67-20.34l5.25-27.19,2.33-39.68,4.17-32.34s13.67-56.02,10.67-65.52c0,.33,10.67-24.18,16.51-23.34Z"/>
    <path class="cls-5" d="m3011.95,1059.07c-3.28.5-6.7,0-9.24-2.13-8.74-7.37.47-23.73.47-23.73,5.84-7.84-1.5-80.03-1.5-80.03-5.34-9,10.58-43.86,10.58-43.86,7-16.34.33-61.02.33-61.02-.5-5.34-2-28.84-2-28.84-4-13.5-4.33-31.18-4.33-31.18-2.67-22.51,19.17-25.68,19.17-25.68,43.68-12.5,36.35,44.68,36.35,44.68,3.5,27.18-12.84,85.36-12.84,85.36-3.5,12.5-3.5,36.35-3.5,36.35-3.5,45.85-7.75,41.53-7.75,41.53-4,22.34-4.33,41.01-5.5,59.35-1,15.66,23.38,21.06,30.53,22.31,1.3.23,2.39,1.13,2.82,2.38,4.3,12.37-17.66,5.51-17.66,5.51,0,0-22.15-3.1-35.92-.99Z"/>
    <path class="cls-2" d="m3062.28,804.61s6.17-11.84,11.34-12.84c0,0,3-3,3.17-6.34,0,0,0-2.5,2.17-10.84,0,0,4.33-19.84,4.67-36.18,0,0,1.67-28.51,1.67-32.18,0,0,2.5-22.01,1.83-31.84,0,0,2.5-26.51-15.17-42.85,0,0-19.13-9.69-23.36-11.57,0,0-6.35-1.57-6.35.77,0,0,17.04,28.98,4.04,33.31,0,0-12,9-21.67-3,0,0-6.25-12.19-3.58-20.19,0,0-1.08-2.49.92-7.49l2-6.84.67-2.17.17-1.33.5-1.83.33-1.83s-6.34,6-7,7.67c0,0-3.33,7.34-5.17,25.18,0,0-2.33,22.67-2,29.18,0,0,1.17,10.17,5,15.51,0,0,10,17.67,10.5,33.01,0,0,.5,6.84-3.17,11.84,0,0-8.84,7.84-11.17,16.67,0,0-8.34,30.01-6.5,39.01l.5,5.5.33,1.33.17.17-.33-4s-.17-3.5-.17-3.83c0,0-3-19.51,19.34-24.17,0,0,19.01-6.84,29.01,6.17-.33.17,8.34,9.34,7.34,36.01Z"/>
    <g>
      <g id="Capa_5" data-name="Capa 5">
        <path class="cls-1" d="m3006.01,609.34s-23.34-8.81-26.12-22.14c0,0-11.78,5.75-15.6-4.31s6.04-18.13,6.04-18.13c0,0,4.39-6.68,7.97-1.84,0,0,3.24-.53,3.21,3.67,0,0,.76-2.49,1.78-2.76l5.07,8.64s9.84,21.66,12.41,24.36l5.83,12.52h-.6Z"/>
      </g>
      <path class="cls-3" d="m3042.82,621.66s24.9,24.54,16.22,35.62c0,0-4.67,13.84-19.76,9.39,0,0-12.45-4.99-14.94-13.33,0,0-1.86-4.96-2.49-8.34l-2.62-8.85s-.5-1.07-1.05-2.5l-.86-2.23s-8.29-18.09-9.99-20.37c0,0-10.24-18.01-12.92-24.23,0,0-14.9-25.12-16.8-25.87,0,0-5.44-2.21-25.48-40.31,0,0-14.86-31.13-19.18-49.24,0,0-5.54-14.51-8.67-17.45,0,0-3.72-9.92,2.72-4.98,0,0,9.61,7.65,10.89,10.8,0,0,2.44,1.59,3.8-.9,0,0,1.79-5.17,4.02.35,0,0,4.27,18.34,7.43,22.25,0,0,7.44,14.06,11.3,18.11,0,0,25.59,31.06,30.55,49.55,0,0,11.01,19.5,13.32,20.58-.42.27,33.49,46.42,34.51,51.93Z"/>
      <path class="cls-3" d="m2997.35,556.38s10.49-5.89,20.89-5.55c4.67.12,9.42,1.59,13.24,5.27,0,0,6.44,5.55,8.9,10.51,0,0,7.66,9.53,7.72,14.48,0,0,7.56,10.59,3,15.19,0,0-12.69,10.13-11.51,12.55,0,0,3.64,10.1,8.95,11.13,0,0-6.76-.2-7.14,1.65,0,0-6.58-11.84-8.05-13.46l-13.42-19.51-10.9-15.38-8.52-11.76-3.49-4.09-.6-.61.93-.41Z"/>
      <path class="cls-3" d="m3028.31,601.07c-4.23-16.77-18.61-31.06-21.17-48.93-.09-.14.05-.23-.04-.37,16.74-6.41,24.7,6.32,24.7,6.32,2.74,5.38,10.26,8.02,10.26,8.02,4.65,2.53,8.14,7.22,8.14,7.22-.33,1.02,2.01,4.27,2.01,4.27,7.59,5.18-.72,17.43-.72,17.43-1.99.91-2.97,2.15-3.58,3.35-6.47-.14-12.87,1.67-19.58,2.69Z"/>
      <path class="cls-1" d="m3000.2,558.9c-.55-.84-1.1-1.67-1.65-2.51l-.37-.56-.37-.56c2.23-1.46,10.31-6.17,19.32-5.51,0,0-7.53,5.54-5.51,8.61,0,0,.38,5.74-1.25,7.21,0,0-1.51,4.38,1.15,8.42,0,0-6.87-9.25-11.18-14.6.14-.09-.04-.37-.14-.51Z"/>
    </g>
  </g>
</svg>
