<?xml version="1.0" encoding="UTF-8"?>
<svg id="Capa_1" data-name="Capa 1" xmlns="http://www.w3.org/2000/svg" viewBox="0 0 1369 1238.79">
  <defs>
    <style>
      .cls-1 {
        fill: #757373;
      }

      .cls-2 {
        fill: #fff;
      }

      .cls-3 {
        fill: #bcbab8;
      }

      .cls-4 {
        stroke: #000;
        stroke-miterlimit: 10;
      }

      .cls-5 {
        fill: #c9c9c9;
      }

      .cls-6 {
        opacity: .3;
      }

      .cls-7 {
        fill: none;
      }
    </style>
  </defs>
  <rect class="cls-4" x=".5" y=".5" width="1368" height="1237.79"/>
  <g>
    <g class="cls-6">
      <g>
        <path class="cls-5" d="m702.72,586.57s2.9,9.2,2.1,12.8c0,0,1.7,1.7,2.9,1.7,0,0,2.7.4,2.5,4.4,0,0-2.3,5.7,3,9.1,0,0,1.9,1.9.8,6.9,0,0-.8,10.7,9.5,13,0,0,7.6,3.2,14.3-10.3,0,0,2.3-1.5,1.7-5l-.8-8s.2-9.7-1.1-10.5c0,0-3.4-6.3-9.1-3.4,0,0-4.6-.3-5.9-2.3,0,0-2.4-1.7-2.2-2.7v-.1s-.7-.5-1-.6c0,0-10-9.3-11-10.4-.1.1,1.3,1-5.7,5.4h0Z"/>
        <path class="cls-3" d="m733.02,304.97c-.3-1.4-.6-2.7-.9-4-.7-1.6-1.5-2.1-2.4-2-.1.1-.3.2-.4.3-.1.1-.2.2-.4.3,0,0-.1.1-.2.2-.2.2-.4.5-.6.7-.2.3-.4.6-.6.9h0l-.1.1c-.1.1-.2.3-.3.4-.7,1.3-1.3,2.7-1.9,4-1.1,2.4-2.2,4.8-3.9,6.8-1.2,1.6-3,3.1-4.7,4.4-.2.5-.5.8-1,1-.4.2-.9.4-1.4.5-.5.3-.9.6-1.4.8-.3.3-.6.5-1,.8-.7.5-1.6,1-2.5,1.1-.1,0-.1.1-.1.1,0,0-1.7,0-3.5.3-.1,0-.1.1-.2.1-.2.2-.5.3-.7.5l-.2.2c-.07.07-.13.13-.2.2-.2.2-.3.4-.5.6h0c0,.1-.1.2-.1.3-.1.1-.1.3-.2.5v.1c0,.2-.1.3-.1.5v1.6c2.3,2.3,2.7,4.9,2.5,6.7,0,.4,0,.9-.2,1.2v.1c-.2.8-.5,1.4-.5,1.4h0c-.5,1.4-.9,2.8-1.6,4.2-1,2.1-2.6,4-3.9,5.9-1.2,1.7-2.5,3.4-3.6,5.2-1,1.6-1.8,3.3-2.7,5-1.8,4.2-4,8.2-6.5,12-.2.3-.3.5-.5.8-.1.3-.2.6-.4.8-.2.3-.4.5-.6.8,0,0,0,.1-.1.1-.1.1-.1.2-.2.3-.2.3-.3.7-.5,1,0,.1,0,.2-.1.3-1.1,2.7-2.1,5.3-2.8,8.1-.2.9-.3,1.8-.4,2.7-.1.9-.3,1.8-.4,2.7-.1.8-.1,1.7-.2,2.5v.5c.3,1.8-.6,7.5-1.1,10.1,0,.7,0,1.4-.1,2.1,1.3,5.4.3,16.6.3,16.6-13.8,25.3-7.1,37.7-7.1,37.7-2.2,18.2-4.4,20.4-4.4,20.4-16,10.2-1.3,36.4-1.3,36.4-.4-2.7,1.8-4.4,1.8-4.4,4.4-9.8,34.2,0,34.2,0,3.9-1.2,3.7-34.5,3.2-55.7-1.1-5.9-1.8-11.8-2.3-17.8-.3-3.4-.7-7-.3-10.3,0-.3.1-.5.2-.8.1-.5.1-.9.2-1.4.2-.8.5-1.6.9-2.3.1-.1.2-.3.3-.4v-.1c3.1-3.6,4.4-22.6,4.4-22.6l.2-.6v-1.3c-.3-3.1-.1-6.1.6-9.1.6-3.6,1.7-7.2,3-10.6,2.2-8.6,6.1-16.7,7.9-25.4.1-1.1.2-2.2.4-3.3.4-2.7,1.7-5,2.9-7.4,1.1-2.3,2.3-4.6,3.6-6.8.1-.7.4-1.5.8-2.2.4-.7.8-1.3,1.3-2,.6-2.2,1.3-4.4,1.7-6.6.7-3.8,1-7.7,1-11.6,0-.5.2-1,.4-1.4-.2-1-.3-1.9-.5-2.8h0Z"/>
        <path class="cls-7" d="m703.02,507.37s-30.5-10.4-34.2,0c0,0-2.2,1.5-1.8,4.4,0,0-4.3,57.2,31.6,72.3"/>
        <path class="cls-2" d="m667.12,511.77s-4.1,54.4,25.9,69.4l7.8,3.7,2,1.7s7-4.3,5.5-5.6c0,0-6.3-3.9-9.8-3.8,0,0-16.1-6.4-7.1-22,0,0,9.6-8.4,19.2-6.2,0,0,1.4.3,2,1.7,0,0,3.4,3.1,1.6,5.4,0,0-.7,1.2-2.6.6,0,0-1.2-.7-2.2-.7,0,0-3-.5-3.4-.2,0,0-1.7.9-.4,2,0,0,8,3.5,10.2,5.8,0,0,7.1,5.1,7.7,6l3,2.3,1.3,1s1.6-2.5.7-6.7c0,0-2.8-9.1-9.4-17l-7.4-8.6s-8.9-9.7-7.6-22.5c0,0,.7-1.1.2-5,0,0-1-1.8-.1-5.1,0,0-.8-.5-1.1-.5,0,0-20.1-7.6-31.2-2.9-.3-.1-5.8,3.7-4.8,7.2h0Z"/>
        <path class="cls-3" d="m799.72,624.87l.1-.4s6.4-.8,7.3,4.2l-1.1,14.5s-4.2-7.5-11.4-10.3c0,0-8.4-5-12.6-5.3,0,0-15.6-2-30.4-17,0,0-6.1-7.3-9.8-8.6-.6-.4-1.2-.6-1.9-.7-.5-.3-1-.6-1.5-.8-1.5-.8-3.2-1.1-4.8-1.8-.1,0-.2,0-.2-.1-3.3-1.5-7.1-3.2-9.7-3.9-.2-.2-.4-.3-.7-.4-.2-.1-.4-.2-.6-.3-.4-.3-.7-.5-1-.8-.5-.4-1-.9-1.5-1.2-.2-.1-.3-.2-.5-.2-3.7-3.4-9.8-9.1-11.1-10.7,0,0-4.9-3-9.8-3.8,0,0-16.2-6-7.1-22,0,0,7.4-7.7,17.6-6.6,0,0,2.5.1,3.2,1.6,0,0,.7.9.9.9,0,0,2,2.1,1.6,3.9,0,0-.2,1.8-2.1,1.9,0,0-.8,0-1.4-.3,0,0-1.1-.6-2.4-.6l-1.7-.2s-1.3-.4-1.9.7c0,0-.5.6.2,1.2,0,0,0,.2.5.3,0,0,7.7,3.3,9.7,5.5,0,0,7.4,5.4,7.6,6l4.5,3.4s8.7,6.5,10.9,9.1c0,0,3,3.4,3.4,4.3,0,0,3.5,4.4,8.5,6.4,0,0,12.1,4.5,15.6,7.3,0,0,20.9,12.1,26.9,20.2-.1-.1,3,3,6.7,4.6h0Z"/>
        <path class="cls-1" d="m727.02,634.77s-4.6,6.6-14.3,4.2c0,0-12.1-3.3-15.6-13.3,0,0-9.6,9.5-13,.2,0,0-7.5-4.9-1.7-13.1,0,0,7.4-10.7,13.6-1.9l2,1.2s-.4-3,2.2-5.2c0,0,5.1-5.1,4.6-7.5,0,0,1.8,1.7,2.9,1.7,0,0,2.8.4,2.5,4.4,0,0-2.2,5.5,3,9.1,0,0,1.6,1.3,1,5.8,0,0-.8,5.5,2.4,9.8,0,0,2.5,3.5,6.8,4.2l.6.2c0,.1,1.7.5,3,.2h0Z"/>
      </g>
    </g>
    <g class="cls-6">
      <path class="cls-3" d="m517.72,500.47s-3.3,4.6.5,6.2c0,0,10.6,4.1,9.6,6.1,0,0-16-3.5-26.4-2.3,0,0-11-.4-14.8,1.2,0,0-13.5,2.2-18-.9,0,0-13.4-7-20.4-8,0,0-2.2-1.2-12.3.4,0,0-6.4.4-16.8-5.1,0,0-4.3-2.8-7,2.8l-1.2,12.4s-1.8,3.9,2.4,5.5c0,0,5.7,6.9,1.4,10.4,0,0-1.2,2-1,2.6,0,0-1.9,3.1-4.5,4.8,0,0-4.4,1.9-5.7,5.3,0,0-5.2,10.2-18.8,3.4,0,0-4.3-9.5-.2-15.7,0,0,2.6-4.7,2.1-8.7,0,0-2.5-5.9,3-7.6,0,0,1.1.2.9-2.1,0,0-2.5-5.1,3.4-7.2,0,0,5.7-4.7,6.2-6.6,0,0,.1-20.9,14.5-22.8,0,0,5.4-2.9,8,4.5,0,0,1.1,2.9-1.8,3.4,0,0-3.2-.2-2.3.4,0,0,8.9,1.4,16.5-.2,0,0,7.9,0,13,3.5,0,0,2.4,4,10,3.1,0,0,20.9-1.6,32.1,6.7,0,0,11.8,8.1,21.7,5,0,0,6-2.8,5.9-.5h0Z"/>
      <path class="cls-1" d="m384.62,545.17s-20.8,0-17.7-20c0,0-9,3.9-14.3-2.3,0,0-9-12.4,5.6-20.4,0,0,15.2-2.2,14.2,7.4,0,0,9.4-5.3,12-2.6,0,0,3.9.1,5.3-1.2.2-.2.3-.4.4-.7,0,0,1.7-1,1.4-.2h0s-2.5,1.9-1.2,5.6c0,0,.3.7.1,1.5,0,0-.1.9-.8.9h-.2s-4.5,1-3.3,6.3l.3,1.1s.2,1,.1,2.2c0,0,.1,2-1.9,6.3.1.1-4.3,5.1,0,16.1h0Z"/>
      <path class="cls-3" d="m442.52,414.17c4.4-7.5,14.3-5.3,14.3-5.3,9.5-.8,13.4,24.3,13.4,24.3,2.1,11.9,12.8,11.7,12.8,11.7,23.3,3.7,32.5,10.1,32.5,10.1,5.5,5.4,6.1-1.1,6.1-1.1l3.2-6.8c7.1-22.4,33.8-41.1,33.8-41.1,4.5-4.5,7.8-10.3,7.8-10.3.5-7.2,4.7-6.5,4.7-6.5,8.2-5.3,12,5,12,5,.7,1.5,9.7,9,9.7,9,11,5.7,12,12.2,12,12.2.2,4.2-8.7.7-8.7.7-2.7-3.3-13.2-5.3-13.2-5.3-11.7-3.7-18,13.5-18,13.5l-20.7,35.8c-3.2,8.2-11.8,17.5-11.8,17.5-4.8,7.8-15.8,5-15.8,5-20.7-1-40.7-10.2-40.7-10.2-11.8-3.8-17.9-9.2-17.9-9.2-.1-2.1-10.5-10.7-10.5-10.7-2.8-2.7-9.2-13.9-9.2-13.9-3.2-5.4-2.6-6.8-2.6-6.8-.9-2,5.1-15.6,5.1-15.6l1.7-2h0Z"/>
      <path class="cls-7" d="m400.42,494.77s-4.7-7.7-1.4-17l5.9-8.7s11.5-16,13.7-18.1"/>
      <path class="cls-2" d="m418.62,450.77s9.6-10.4,13.1-18.9c0,0,5.4-13.5,11.6-18.6,0,0-1.3,1.9-2.4,2.9,0,0-5.5,12.4-5.1,16.4,0,0,1.1,3.8,2.1,4.9l5,8.3,3.5,5.2s-1.1,2.9-1,3.8c0,0-.3,2.9-.5,3.3,0,0-.6,2.3-.5,2.6,0,0-1.2,3.5-.4,6.6,0,0,1.8,8.4.7,10.8,0,0-.5,4.2-2.3,4.1,0,0-3.1.6-5.1.7,0,0-.9-.1-2.1-.1,0,0-3.9.7-6.8.7,0,0-5.3,0-8.1-.3l-1.6-.2s-.5-.1,0-.3c0,0,1.1-.1,2.2,0,0,0,2.3-.1,1.9-3,0,0-.8-3.8-3.9-5.1,0,0-1.8-.9-4.2.2,0,0-9.1-.4-13.2,14.2l-.8,4s.3,7.1-2.2-.4-.1-.3-.1-.3c0,0-4-10.2,3.1-17.9l9.7-13.5,7.4-10.1h0Z"/>
    </g>
    <g>
      <path class="cls-3" d="m530.13,494.07s-10.1,8.9-14.9,1.2c0,0-.7-2.1.9-2.4,0,0,8.3-1.4,7.6-6.9,0,0-1.8-23.3,2.4-44.7,0,0,4.2-16,1-32,0,0,.5-16,1.3-22.4,0,0,.5-4.5.5-7.9,0,0,1.2-10.6,13.1-10.8,0,0,10.8.7,8.4,10.1,0,0,2.4-.2-.5,8.9,0,0-2.4,15.3-3.9,21.4,0,0-2,13.3-4.7,24.2,0,0-7.9,29.6-7.1,35.9,0,0-.8,12.8-2.4,18.7.2,0,1.4,4.1-1.7,6.7h0Z"/>
      <path class="cls-2" d="m551.13,384.07s1.7-7.4-3.3-13.9c0,0-6.6-4.9-14.5,1.2,0,0-4,3.8-4.3,7.7,0,0-.3,4.7-.5,7.6l-.5,4.5s-1.5-9.6-2.8-10.3c0,0-2.6-6.3-1.7-8.4,0,0,.6-.3.9-2.1,0,0,.1-1.3,2-4.4,0,0,.4-5.3,2.2-7.4,0,0,2.4-1.8,2.7-10.4,0,0-.4-7.7-1.1-9.6l-1.1-4.9-1.7-7.1s-.7-2-.6-2.5,0-.1,0-.1c0,0-.7-2-2-2.7,0,0-15.4-5.4-10.3-29.1,0,0,.6-4.2,6.3-10.6,0,0,3.6-5.4,7.6-3.7l.3-.7s-7.7,20.4,4.7,28.4c0,0,10.1,6.7,17.2-5.1,0,0,2-2.8,3.1-8l.3-4s2.6,5.1,3.5,11c0,0,.6,8.4,1.1,9.1,0,0,2.4,14.2,2.2,20.8,0,0,.5,12.9,1,14.2,0,0,7.8,31.1-4.1,37.4.1-.2-4.1,2.7-6.6,3.1h0Z"/>
      <path class="cls-3" d="m524.13,277.87s1.6-1.1,2.2-4.2l1-4.2s2-7.6,2-13.1c0,0-.1-3.9.4-7.3l.6-8s1.6-21.6.8-26.8c0,0-3.8-23.9-3.5-27.9,0,0-.6-10.9,1-18.2,0,0,2.5-27.8,3.8-31.5,0,0,3.6-10.2-3-15.8,0,0-3.5-2.7-.7-5.5,0,0,1.7-1.8,2.7-1.9,0,0,9.7-5.7,11.9-16.7l.5-4.3s-.1-2.3.9-3.1c0,0,.6-.5,1.7.1,0,0,.5.2.6,1.4,0,0,.2,1.4.4,1.5,0,0,3.7,7.2.9,19.1,0,0-3.1,19.2-2.9,20.4,0,0-1.3,13.8.1,17.5,1.3,3.7,6.1,33.1,4.7,55.4,0,0,1,12.9.4,17.8,0,0,.6,10.9,1.7,12,0,0,6.7,32.1,6.1,45.2,0,0-2.6,9.6-2,10.8l1.2,5.8s-1.5-5-3.1-7.2c0,0,.6,11.8-10.5,17.8,0,0-9.1,3.8-15.4-2.2,0,0-9-4.7-4.9-21.3,0,0,.1-1,1.3-5.1l-.9-.5h0Z"/>
      <path class="cls-5" d="m527.53,386.77s-14.1-4.1-14.5-1.3c0,0,.8,7.2-5,6.4,0,0-12.9-1.9-3.8,17.3,0,0,5.3,7.9,19,2.8,0,0,4-1.4,4.1-3l.4-9.3.5-8.9-.7-4Z"/>
      <path class="cls-1" d="m504.23,409.27s-2.2,4.4-5.8-.7c0,0-14-20.6-2.4-32.3l5.2-3.3s-11.8,2.8-8.7-8.8c0,0,.4-7.1,6-6.8,0,0,10.1-8.8,15.2,1.2,0,0,3.8,10.1-3.7,11.7,0,0,5.4-.5,10.4,3.2,0,0,2.1,1.8,2.6.4l.2-.2s3.7,11.6,4.1,13.2c0,0-7.6-2.2-11.2-2.2,0,0-2.2-.2-3,.5,0,0-.2.1-.2.4v.3s.6,5.8-3.7,6.2c0,0-.5.1-.8,0,0,0-5.3-.8-7,2.9,0,0-1.5,2.4.1,7.9.2-.1,1.9,5,2.7,6.4h0Z"/>
    </g>
  </g>
  <path class="cls-2" d="m533.98,500.7c-.2-.2-.4-.5-.7-.7-1.5-1.4-3.2-2.2-5-2.5-1.9-.4-3.8-.6-5.7-.5-1.8.1-3.6.4-5.2,1.4-.7.5-1.3,1.1-1.8,1.8-.2.2-.3.5-.5.7v219.5h0v107.1l.1,83.2.1,22.2c-.2,5.6.1,184.1-.7,189.7-.3,2,1,3,4.8,2.8,2.3-.1,4.5,0,6.8-.1,8.5,0,7.8.4,7.8-4.4V500.7h0Z"/>
  <path class="cls-2" d="m824.88,624.3c-.4-.4-.9-.7-1.4-1-1.8-.9-3.9-1.3-5.9-1.4-2.1-.2-4.2,0-6.3.5-1.7.5-3.5,1.3-4.8,2.9v175.3h0v86l.1,66.8.1,17.9c-.2,4.5.1,147.8-.7,152.3-.3,1.6,1,2.4,4.7,2.3,2.2-.1,4.4,0,6.7,0,8.2,0,7.6.3,7.6-3.6-.1-122.6-.1-345.5-.1-498h0Z"/>
</svg>