<?xml version="1.0" encoding="UTF-8"?>
<svg id="Layer_1" data-name="Layer 1" xmlns="http://www.w3.org/2000/svg" viewBox="0 0 3240 1080">
  <defs>
    <style>
      .cls-1 {
        fill: #757373;
      }

      .cls-2 {
        fill: #fff;
      }

      .cls-3 {
        fill: #bcbab8;
      }

      .cls-4 {
        fill: #c9c9c9;
      }

      .cls-5 {
        fill: #aba9a8;
      }

      .cls-6 {
        opacity: .3;
      }
    </style>
  </defs>
  <rect y="0" width="3240" height="1080"/>
  <g>
    <path class="cls-2" d="m2086.45,1084.69c.07-.32.17-.63.24-1.11.48-2.38.76-5.08.87-7.94.14-3.02.21-6.03.17-9.05-.03-2.86-.14-5.71-.48-8.25-.17-1.11-.38-2.06-.62-2.86-.07-.32-.17-.48-.24-.79h-113.1l-28.81.16-7.69.16c-1.94-.32-63.75.16-65.69-1.11-.69-.48-1.04,1.59-.97,7.62.03,3.65,0,7.14.03,10.79,0,13.49-.14,12.38,1.52,12.38h214.76Z"/>
    <path class="cls-2" d="m2010.58,756.01c-.65-.1-1.3-.25-2.28-.35-4.89-.7-10.43-1.1-16.29-1.25-6.19-.2-12.38-.3-18.57-.25-5.86.05-11.73.2-16.94.7-2.28.25-4.24.55-5.86.9-.65.1-.98.25-1.63.35v110.07h0v53.7l.33,41.72.33,11.13c-.65,2.81.33,92.31-2.28,95.12-.98,1,3.26,1.5,15.64,1.4,7.49-.05,14.66,0,22.15-.05,27.69,0,25.41.2,25.41-2.21v-310.99h0Z"/>
    <path class="cls-2" d="m1953.73,740.03c-14.83-.01-29.52,2.91-43.39,8.51-.16.07-.33.13-.49.2-13.59,5.46-23.83,17.65-27.43,25.96l-1.87,7.82c-.94,11.36-2.98,39.27-2.98,39.27,3.57,3.27,6.64-6.55,6.64-6.55l3.06-25.64c3.57-35.46,53.11-34.91,53.11-34.91l137.36,4.36c8.11-4.61,11.33-20.18,1.46-18.99-3.78.46-7.65.07-11.47.07l-114-.11Z"/>
  </g>
  <g>
    <path class="cls-2" d="m1580.08,1080.41c.13-.3.33-.59.46-1.04.93-2.23,1.45-4.76,1.65-7.43.26-2.82.4-5.65.33-8.47-.07-2.67-.26-5.35-.93-7.73-.33-1.04-.73-1.93-1.19-2.67-.13-.3-.33-.45-.46-.74h-215.95l-55.01.15-14.68.15c-3.7-.3-121.73.15-125.43-1.04-1.32-.45-1.98,1.49-1.85,7.13.07,3.42,0,6.69.07,10.11,0,12.63-.26,11.59,2.91,11.59h410.08Z"/>
    <path class="cls-2" d="m1578.12,975.37h0c-1.4-3.6-5.17-5.68-8.96-4.94l-137.05,22.55h0l-69.46,13.79-53.93,10.86-14.37,3c-3.69.43-122.47,28.69-126.33,28.24-1.38-.18-1.66,1.84-.43,7.36.73,3.34,1.3,6.56,2.03,9.9,2.46,12.39,112.72-12.83,109.65-13.61-36-9.19,257.13-48.1,295.3-54.5,3.19-.53,5.52-3.29,5.52-6.53v-5.62c0-3.59-.67-7.15-1.97-10.5Z"/>
  </g>
  <path class="cls-2" d="m.2,1059.72c-.66,6.76.54,13.52,0,20.28,433.72,0,873.51,0,1029.6,0,1.63,0,3.26-.04,4.9-.05,2.44,0,3.56-1.11,3.57-3.22.02-4.9.06-9.79.07-14.69,0-2.18-1.18-3.05-3.69-2.88"/>
  <path class="cls-2" d="m2299.12,1059.72c-.6,6.76.49,13.52,0,20.28,393.09,0,791.68,0,933.15,0,1.48,0,2.96-.04,4.44-.05,2.21,0,3.23-1.11,3.23-3.22.02-4.9.05-9.79.07-14.69,0-2.18-1.07-3.05-3.35-2.88"/>
  <g>
    <path class="cls-3" d="m175.55,1060.4s13.57,0,13.57-3.61c0-5.14-11.43-5.08-12.68-5.33-4.6-.89-17.68-1.21-19.77-12.33-3.24-17.22,1.49-35.29,5.34-56.59,0,0,4.04,4.13,7.46-39.59,0,0,.04-22.73,3.4-34.65,0,0,15.68-55.46,12.38-81.38,0,0,7.09-54.52-34.59-42.67,0,0-20.83,2.99-18.33,24.45,0,0,.29,16.85,4.08,29.74,0,0,1.39,22.42,1.86,27.51,0,0,6.29,42.62-.42,58.19,0,0-15.24,33.22-10.16,41.81,0,0,6.88,68.85,1.3,76.32,0,0-9.8,12.32,3.57,17.12,1.59.57,3.29.75,4.98.63,3.28-.24,9.86-.52,16.37.34,0,0,10.42-.28,12.51-.02.16,0,7.02.32,9.13.06Z"/>
    <g id="Capa_5" data-name="Capa 5">
      <path class="cls-1" d="m133.88,591.91s-15.04-20.68-9.91-33.66c0,0-13.33-1.71-10.94-12.47,2.39-10.77,15.38-12.13,15.38-12.13,0,0,7.52-3.25,7.86,2.91,0,0,3.08,1.37.68,4.96,0,0,2.05-1.71,3.08-1.37l-.51,10.25s-3.76,24.09-3.08,27.85l-2.05,14.01-.51-.34Z"/>
    </g>
    <path class="cls-5" d="m223.9,1060.99c-15.1,1.97-8.96-16.74-8.96-16.74,2.21-9.77-34.66-74.36-34.66-74.36-8.74-6.22-8.31-45.5-8.31-45.5-.23-18.22-25.04-57.31-25.04-57.31-2.69-4.79-13.86-26.19-13.86-26.19-9.36-10.99-17.02-27.41-17.02-27.41-11.85-19.98,7.29-32.02,7.29-32.02,35.73-29.87,52.62,26.76,52.62,26.76,14.57,24.01,23.44,85.31,23.44,85.31,1.92,13.17,11.82,35.51,11.82,35.51,15.77,44.41,10,42.13,10,42.13,5.53,22.59,6.86,54.25,13.88,72.12,0,0,7.58,5.35,29.36,9.7,5.74,1.15,2.14,6.4-.09,6.6-6.64.6-14.33.46-17.28.43-3.69-.04-10.63.19-15.4-.34l-7.8,1.31Z"/>
    <path class="cls-2" d="m175.58,807.04s.85-.3,4.78-3.23c0,0,3.08-3.08,3.25-6.49,0,0,0-2.56,2.22-11.11,0,0,4.44-20.34,4.78-37.08,0,0,1.71-29.22,1.71-32.98,0,0,2.56-22.56,1.88-32.64,0,0,2.56-27.17-15.55-43.92,0,0-13.67-11.45-13.33-14.35,0,0-6.84-4.61-6.84-2.22,0,0,7.18,35.2-6.15,39.64,0,0-12.3,9.23-22.21-3.08,0,0-8.03-11.62-5.3-19.82,0,0,.51-3.42,2.56-8.54l2.05-7.01.68-2.22.17-1.37.51-1.88.34-1.88s-6.49,6.15-7.18,7.86c0,0-3.42,7.52-5.3,25.8,0,0-2.39,23.24-2.05,29.9,0,0,1.2,10.42,5.13,15.89,0,0,10.25,18.11,10.77,33.83,0,0,.51,7.01-3.25,12.13,0,0-9.06,8.03-11.45,17.09,0,0-8.54,30.76-6.66,39.99l.51,5.64,1.09,1.05.17.17-.72-4.38s.13-3.34.13-3.69c0,0-.37-11.14,19.35-22.34,0,0,10.52-7.98,26.46,3.37-.34.17,4.77.52,17.42,27.85Z"/>
    <path class="cls-3" d="m158.49,623.18s7.52,35.03-6.15,39.64c0,0-11.79,9.23-22.21-3.08,0,0-7.86-11.28-5.3-19.82,0,0,1.2-5.3,2.56-8.54l2.73-9.06s.17-1.2.51-2.73l.51-2.39s3.08-20.16,2.91-23.07c0,0,1.37-21.19,2.56-28.02,0,0,1.37-29.9.17-31.61,0,0-3.42-4.96.85-48.87,0,0,4.78-35.03,11.28-52.97,0,0,3.42-15.55,2.39-19.82,0,0,2.39-10.59,5.13-2.73,0,0,3.93,11.96,3.25,15.38,0,0,1.2,2.73,3.76,1.37,0,0,4.44-3.42,3.25,2.56,0,0-6.66,18.11-6.15,23.24,0,0-1.54,16.23-.51,21.87,0,0,4.44,41.01-1.71,59.64,0,0-1.54,22.9-.17,25.12-.51,0,2.56,58.61.34,63.91Z"/>
    <path class="cls-3" d="m156.27,541.67s12.3.85,21.02,7.01c3.93,2.73,7.18,6.66,8.37,11.96,0,0,2.39,8.37,1.71,14.01,0,0,1.2,12.47-1.54,16.75,0,0,.51,13.33-5.98,14.7,0,0-16.58,1.54-16.92,4.27,0,0-3.08,11.96,2.05,15.04,0,0-6.32-4.44-7.69-3.08,0,0,1.03-13.84.68-16.06l-.51-24.27-.68-19.31-.68-14.87-.68-5.47-.17-.85,1.03.17Z"/>
    <path class="cls-3" d="m157.64,597.38c5.81-16.75,1.54-37.08,9.4-53.83,0-.17.17-.17.17-.34,17.94,3.93,17.6,19.31,17.6,19.31-.68,6.15,4.27,12.65,4.27,12.65,2.56,4.78,2.91,10.77,2.91,10.77-.85.68-.68,4.78-.68,4.78,3.59,8.72-10.42,14.53-10.42,14.53-2.22-.34-3.76.17-4.96.85-5.47-3.76-11.96-5.81-18.28-8.72Z"/>
    <path class="cls-1" d="m157.29,545.43v-3.08c0-.17,0-.34,0-.68v-.68c2.73,0,12.3.51,19.65,6.15,0,0-9.57.51-9.57,4.27,0,0-2.91,5.13-5.13,5.47,0,0-3.76,2.91-3.76,7.86,0,0-.68-11.79-1.37-18.8.17,0,.17-.34.17-.51Z"/>
  </g>
  <g class="cls-6">
    <path class="cls-3" d="m696.17,774.52c-11.49-3.03-12.2-7.27-12.2-7.27l-5.34-41.73c-.57-4.49.39-9.05,2.75-12.91,14.24-23.27,29.4-44.81,29.4-44.81,10.55-8.42,24.68-14,32.15-16.58,3.1-1.07,6.08-2.47,8.83-4.26,9.67-6.29,25.77-13.51,25.77-13.51,12.08-11.01,20.54-10.63,20.54-10.63,12.38,1.13,15.89,14.72,15.89,14.72,8.19,18.65-11.31,22.08-11.31,22.08-5.69,1.66-24.34,6.5-24.34,6.5-9.38,5.82-27.18,13.23-27.18,13.23-20.6,6.71-41.35,26.35-49.65,34.86-2.45,2.51-3.89,5.82-4.06,9.32-1.07,21.95-.23,27.5-.23,27.5l2.98,21.39-1.3,1.35c-.7.72-1.74,1.01-2.71.75Z"/>
    <path class="cls-3" d="m625.66,1050.97c1.79-6.84,11.99-45.7,13.03-47.29,0,0,7.55-22.49,12.31-27.31,4.6-4.89,32.35-41.73,45.65-77.59,0,0,10.52-19.49,12.99-27.57,0,0,8.51-16.64,10.99-17.59,0,0,32.77-45.57,40.93-66.48,0,0,2.6-16.82,4.37-18.29l5.91-8.24s-5.82,6.78-9.85,9.11c0,0,9.13-18.04-4.07-35.14,0,0-11.6-12.26-25.62-7.25,0,0-17.34,1.1-22.46,29.92,0,0-.54,1.63-1.51,8.88l-1.76.16s1.74,2.83.53,8.1l-1.35,7.27s-2.15,13.28-5.97,21.88c0,0-2.86,6.03-4.44,11.7l-4.62,12.93s-12.5,34.9-17.36,42.48c0,0-22.54,34.75-24.85,41.22,0,0-8.51,16.64-11.07,29.17,0,0-15.22,39.41-15.75,46.1,0,0-.46,8.57-14.67,12.75,0,0-7.35,1.79-4.91,8.12,0,0,.85,2.42,1.94,3.89.8,1.09,1.48,2.27,1.92,3.55,1.94,5.64,6.13,19.84,5.64,36.12,0,0,.4,7.17,2.47,9.59,0,0,1.98,2.21,6.05-.53,0,0,3.05-4.13,4.72-7.46.35-.7.62-1.44.82-2.2Z"/>
    <path class="cls-2" d="m786.13,594.1l29.46,11.06c-1.72,4.67-25.01,10.97-25.01,10.97-2.27,6.3-4.31,13.57-4.31,13.57,8.05,15.07,21.79,12.06,21.79,12.06,12.37-6.64,14.91-19.38,14.91-19.38,3.62,2.38,8.14,9.86,8.13,9.47,14.15,18.19-19.86,61.26-19.86,61.26-1.69,1.68-11.53,21.46-11.53,21.46-4.32,10.44-18.04,30.92-18.04,30.92-1.27.74-8.11,13.43-8.11,13.43-5.55,8.58-13.19,14.71-13.19,14.71l2.34-6.45c1.93-8.89.78-14.67.78-14.67-2.8-23.41-23.27-20.04-23.27-20.04l-21.89,44.05s-.46-1.12-1.81-2.56c-1.07-1.15-2.5-1.88-4.02-2.25-6.53-1.57-10.31-6.34-10.31-6.34-.97-1.13-1.78-2.64-2.45-4.26-2.49-6.04-2.54-12.8-.56-19.03,10.19-31.94,32.53-29.61,32.53-29.61,2.52-.18,11.13-13.36,11.13-13.36,0,0-.12.69.07-.16.2-.85,2.69-3.48,2.69-3.48l7.64-9.89,5.16-6.88c2.43-2.47,8.46-14.21,8.46-14.21,3.98-9.74,3.85-14.82,3.45-16.92-.3-1.57-.55-3.14-.66-4.73-.41-5.86-.86-17.42,1.58-21.99,0,0,5.1-23.07,14.89-26.78Z"/>
    <path class="cls-5" d="m770.86,1025.88c.75-1.16.89-2.62.33-3.88-2.62-5.89-.9-18.83-.79-24.33.13-7.06,6.24-19.16,7.12-20.02,0,0,12.19-20.36,17.87-24.04,5.54-3.79,42.11-35.82,62.77-68.01,0,0,6.76-8.6-2.4-29.03,0,0-7.08-11.77-8.78-14.17l-18.23-24.63-13.91-20.81c-3.13-4.27-21.44-25.14-21.44-25.14-11.54-16.63-43.29-39.57-43.29-39.57-17.74-5.73-29.96,9.41-29.96,9.41-4.28,5.82-4.86,18.11-3.99,26.22,1.07,9.97,5.3,19.39,12.24,26.64,5.26,5.5,13.49,8.72,23.21,12.49,7.39,2.87,14.01,7.44,19.3,13.34l8.98,10.02s8.86,10.88,18.2,21.63c4.47,5.14,7.69,11.25,9.41,17.84,1.46,5.61,2.43,11.77.67,14.58,0,0-11.87,14.43-17.06,26.12,0,0-24.71,40.89-26.67,47.31,0,0-5.37,17.72-20.15,18.76,0,0-7.56.18-6.54,6.88,0,0,.52,4.21,1.8,5.36,0,0,7.06,6.43,15.87,22.54,0,0,2.25,7.49,3.05,12.32.49,2.97,2.35,5.6,5.12,6.77.03.01.07.03.1.04.59.24,1.26.21,1.85-.06h0c2.17-.98,4.02-2.57,5.31-4.58h0Z"/>
    <path class="cls-4" d="m813.85,604.74s-9.61-25.55-4.48-26.69c0,0,13.46.45,11.15-10.18,0,0-5.36-23.64,31.52-9.51,0,0,1.48,6.24-3.32,25.66-1.66,6.72-4.76,13.04-9.2,18.36-.04.05-.08.1-.12.14-.42.5-.95.88-1.55,1.14l-4.85,2.12c-1.89.82-3.95,1.19-6,1.05l-4.68-.3c-.97-.06-1.94-.21-2.88-.44l-5.58-1.36Z"/>
    <path class="cls-1" d="m851.52,555.9c-8.42-6.64-35.91-25.76-56.35-10.3l-7.37,8.76s8.08-21.05-14.06-18.2c0,0-13.18-1.02-14.01,9.37,0,0-18.71,16.43-1.55,28.3,0,0,17.67,9.5,22.47-3.92,0,0-2.26,9.82,3.32,19.95,0,0,2.8,4.31.09,4.89h0c.81,1.48,2.17,2.57,3.79,3.03,6.73,1.91,24.75,7.05,27.06,7.97,0,0-6.55-15.26-5.66-21.89,0,0,.18-4.1,1.66-5.4,0,0,.23-.34.79-.27l.55.07s6.94,3.39,8.74-4.44c0,0,.31-.9.2-1.47,0,0-.16-9.96,7.07-12.18,0,0,2-1.02,7.84-.94,0,0,9.02,1.01,14.28.53,1.95-.18,2.65-2.66,1.12-3.87Z"/>
    <path class="cls-5" d="m966.96,741.54c-2.32,11.65-6.52,12.62-6.52,12.62l-70.85-13.56c-26.31-13.59-52.73-29.88-52.73-29.88-9.04-10.02-15.48-23.78-18.51-31.09-1.26-3.03-2.84-5.91-4.79-8.55-6.86-9.27-15.05-24.9-15.05-24.9-11.73-11.39-11.86-19.86-11.86-19.86.38-12.43,13.73-16.75,13.73-16.75,18.12-9.31,22.73,9.94,22.73,9.94,2,5.58,7.97,23.9,7.97,23.9,6.38,9.01,14.86,26.33,14.86,26.33,10.26,26.01,36.79,44.27,36.79,44.27,33.6,15.64,62.57,22.07,62.57,22.07l19.32,1.59,1.43,1.22c.76.65,1.11,1.67.92,2.66Z"/>
  </g>
</svg>