<?xml version="1.0" encoding="UTF-8"?>
<svg id="Layer_1" data-name="Layer 1" xmlns="http://www.w3.org/2000/svg" viewBox="0 0 3240 1080">
  <defs>
    <style>
      .cls-1 {
        fill: #757373;
      }

      .cls-2 {
        fill: #fff;
      }

      .cls-3 {
        fill: #bcbab8;
      }

      .cls-4 {
        fill: #c9c9c9;
      }

      .cls-5 {
        fill: #aba9a8;
      }

      .cls-6 {
        fill: none;
      }

      .cls-7 {
        opacity: .3;
      }
    </style>
  </defs>
  <rect width="3240" height="1080"/>
  <path class="cls-2" d="m0,1089.53v-25.13c0-11.28,22.63-11.81,39.93-11.81h3156.36c17.3,0,43.71-1.17,43.71,10.11v25.13c0,11.28-26.42,19.91-43.71,19.91H39.93c-17.3,0-39.93-6.93-39.93-18.21Z"/>
  <g class="cls-7">
    <polygon class="cls-4" points="1322.86 532.34 1321.39 535.68 1308.16 535.68 1308.83 524.26 1317.43 522.1 1322.86 532.34"/>
    <path class="cls-3" d="m1143.56,639.91c-9.64-9.22-8.03-13.77-8.03-13.77l17.45-43.88c1.88-4.72,5.3-8.68,9.72-11.18,26.64-15.11,53.23-28.02,53.23-28.02,14.94-2.53,31.85-.34,40.59,1.2,3.63.64,7.31.88,10.98.61,12.91-.92,32.65.75,32.65.75,17.85-4.24,25.95.73,25.95.73,11.55,7.84,7.6,23.09,7.6,23.09-2.1,22.77-23.11,15.54-23.11,15.54-6.49-1.46-27.43-6.85-27.43-6.85-12.38.61-33.89-1.79-33.89-1.79-23.87-4.61-54.93,3.4-67.71,7.24-3.77,1.13-6.98,3.6-9.05,6.95-12.98,20.98-15.17,26.87-15.17,26.87l-8.7,22.63-2.02.62c-1.08.33-2.25.05-3.07-.73Z"/>
    <path class="cls-3" d="m1123.44,1042.29c1.78-7.74,11.9-51.68,13.01-53.49,0,0,7.71-25.49,12.88-31.06,5-5.64,34.88-47.92,48.58-88.6,0,0,11.14-22.22,13.63-31.37,0,0,8.98-18.95,11.74-20.11,0,0,35.22-52.24,43.66-75.98,0,0,2.34-18.96,4.28-20.66l6.34-9.45s-6.3,7.81-10.74,10.56c0,0,9.63-20.56-5.76-39.29,0,0-13.43-13.37-28.99-7.27,0,0-19.42,1.83-24.18,34.33,0,0-.55,1.85-1.39,10.02l-1.96.24s2.05,3.12.86,9.07l-1.27,8.2s-1.96,14.97-5.95,24.75c0,0-3.01,6.86-4.59,13.28l-4.74,14.67s-12.83,39.58-18.03,48.25c0,0-24.11,39.76-26.48,47.09,0,0-8.98,18.95-11.43,33.1,0,0-15.73,44.73-16.11,52.26,0,0-.22,9.63-16.03,14.8,0,0-8.19,2.26-5.24,9.28,0,0,1.04,2.68,2.3,4.3.94,1.2,1.74,2.49,2.28,3.91,2.37,6.26,7.55,22.05,7.55,40.34,0,0,.69,8.03,3.1,10.67,0,0,2.29,2.41,6.77-.8,0,0,3.28-4.73,5.05-8.53.37-.8.64-1.64.84-2.5Z"/>
    <path class="cls-2" d="m1287.96,524.26l33.43,11.41c-1.78,5.3-27.69,13.16-27.69,13.16-2.33,7.14-4.37,15.37-4.37,15.37,9.54,16.63,24.86,12.79,24.86,12.79,13.65-7.86,16.07-22.25,16.07-22.25,4.14,2.55,9.47,10.78,9.44,10.35,16.5,19.93-20.2,69.41-20.2,69.41-1.84,1.94-12.21,24.47-12.21,24.47-4.49,11.86-19.19,35.31-19.19,35.31-1.4.88-8.64,15.35-8.64,15.35-5.93,9.81-14.3,16.96-14.3,16.96l2.41-7.32c1.87-10.04.38-16.48.38-16.48-3.93-26.16-26.79-21.69-26.79-21.69l-23.06,50.16s-.56-1.24-2.12-2.81c-1.24-1.25-2.86-2.03-4.59-2.39-7.37-1.54-11.78-6.77-11.78-6.77-1.13-1.24-2.09-2.9-2.89-4.7-3-6.69-3.29-14.28-1.28-21.33,10.34-36.18,35.49-34.33,35.49-34.33,2.82-.29,12.03-15.36,12.03-15.36,0,0-.12.78.07-.18.19-.96,2.9-4,2.9-4l8.24-11.35,5.55-7.89c2.64-2.86,9.01-16.23,9.01-16.23,4.13-11.06,3.82-16.75,3.3-19.1-.39-1.75-.72-3.5-.9-5.28-.66-6.56-1.56-19.51,1.03-24.72,0,0,4.94-26.06,15.8-30.55Z"/>
    <path class="cls-5" d="m1281.28,781.45l-2.71-2.85c-6.14-6.44-13.72-11.35-22.11-14.32-11.03-3.9-20.37-7.23-26.47-13.22-8.03-7.89-13.1-18.32-14.64-29.47-1.25-9.07-1.01-22.87,3.59-29.55,0,0,13.19-17.4,33.29-11.58,0,0,36.4,24.66,49.91,42.92,0,0,24.14,20.5,27.8,25.18l44.01,34.3c1.99,2.64,10.34,15.6,10.34,15.6,10.97,22.6,3.67,32.49,3.67,32.49-22.08,36.81-80.92,65.01-87.01,69.45-6.25,4.33-23.39,19.87-23.39,19.87-.96.99-7.4,14.78-7.31,22.71.07,6.18-1.42,20.76,1.72,27.27.67,1.4.56,3.04-.24,4.37h0c-1.38,2.29-3.4,4.14-5.8,5.31h0c-.65.32-1.4.38-2.07.13-.04-.01-.08-.03-.12-.05-3.15-1.22-5.32-4.1-5.97-7.42-1.06-5.39-3.84-13.72-3.84-13.72-10.43-17.78-18.57-24.75-18.57-24.75-1.47-1.25-2.2-5.95-2.2-5.95-1.38-7.48,7.1-7.94,7.1-7.94,16.55-1.67,21.96-21.73,21.96-21.73,1.97-7.27,32.47-46.27,32.47-46.27,5.42-13.29,37.15-20.91,37.15-20.91,1.88-3.22.59-10.09-1.24-16.34l-32.09-19.64c-6.33-3.87-12.12-8.55-17.24-13.92Z"/>
    <path class="cls-4" d="m1313.16,532.04s-15.71-26.3-10.27-28.59c0,0,14.96-2.18,10.28-13.47,0,0-10.63-25.04,32.92-16.79,0,0,2.88,6.6,1.45,29-.5,7.76-2.66,15.36-6.5,22.11-.03.06-.07.12-.11.18-.36.63-.88,1.17-1.48,1.57l-4.94,3.31c-1.92,1.29-4.12,2.1-6.42,2.36l-5.23.6c-1.09.12-2.18.15-3.27.09l-6.43-.39Z"/>
    <path class="cls-5" d="m1504.05,614.38c-.72,12.37-3.85,15.47-3.85,15.47l-92.39,34.26c-4.01,1.33-8.34,1.38-12.39.16-26.47-7.97-30.98-18.74-30.98-18.74-12.47-8.6-23.06-21.96-28.26-29.16-2.16-2.98-4.63-5.72-7.45-8.1-9.9-8.34-22.89-23.3-22.89-23.3-15.76-9.4-18.1-18.62-18.1-18.62-2.81-13.67,10.65-21.85,10.65-21.85,17.38-14.86,31.76,4.38,31.76,4.38,3.63,5.57,10.53,24.63,10.53,24.63,9.3,8.19,23.05,24.91,23.05,24.91,10.57,15.17,19.15,23.47,24.42,27.73,3.33,2.69,7.34,4.38,11.57,4.99,39.94,5.79,77.29-9.27,77.29-9.27l23.46-11.13,1.88.96c1,.51,1.75,1.54,1.69,2.66Z"/>
    <path class="cls-1" d="m1345.97,481.91s8.96-5-2-12.02c0,0-39.93-24.71-63.23.56l-6.39,11.15s4.73-24.86-19.16-17.31c0,0-14.76,1.5-13.61,13.14,0,0-17.39,21.88,3.93,31.57,0,0,21.41,6.97,24.04-8.81,0,0-.54,11.3,7.65,21.38,0,0,3.95,4.21,1.08,5.38h0c1.19,1.48,2.91,2.41,4.79,2.6,7.82.77,28.75,2.86,31.48,3.41,0,0-10.27-15.55-10.61-23.06,0,0-.62-4.57.76-6.3,0,0,.19-.43.81-.45l.63-.03s8.35,2.36,8.78-6.64c0,0,.16-1.05-.08-1.67,0,0-2.16-10.97,5.39-14.86,0,0,4.86-3.35,16.47-.53-.19.43,6.28.95,9.27,2.49Z"/>
    <path class="cls-5" d="m1500.2,629.85c.01.26,24.06-32.54,19.98-31.28-.59.18-8.23,3.62-8.23,3.62l-11.47,8.57-.28,19.09Z"/>
    <path class="cls-3" d="m1135.46,626.54c-.17-.2-.48,39.68,2.03,36.22.36-.49,4.41-7.84,4.41-7.84l6.74-14.9-13.18-13.49Z"/>
  </g>
  <g>
    <path class="cls-4" d="m1877.49,426.54s17.54-7.39,21.93-13.19c0,0,4.73.39,6.26,2.19,0,0,4.05,3.55,9.81-1.86,0,0,5.63-10.74,17.52-7.11,0,0,5.28.43,11.4-7.61,0,0,15.07-14.87,31.68-2.31,0,0,11.89,2.85.14,30.16,0,0-.37,3.6-5.81,12.19l-9.97,10.26s-13.88,7.71-16.74,6.78c0,0-8.27-.58-17.19-4.37,0,0-6.32-6.53-10.99-5.94,0,0-5.62-1.44-6.87.14l-.15.13s-1.65-.41-2.18-.74c0,0-26.75-3.16-29.69-3.26-.13-.15,2.89.66.84-15.47Z"/>
    <path class="cls-3" d="m1641.64,804.84c.3-.73.67-1.65.52-2.34l.07-.18c.23-1.61.12-2.93.12-2.93h0"/>
    <path class="cls-3" d="m1632.75,821.08l2.34,3.49,8.34,8.88c2.34,2.48,4,5.51,4.85,8.82,1.82,7.12,4.16,18,4.34,21.97.14,2.82.48,6.34.8,9.23.11.26.14.7.25.95l.11.26h0c.14.7.29,1.39.43,2.09.22.51.36,1.21.58,1.72.11.26.22.51.22.51.29.33.4.59.51.84.11.26.4.59.51.84,1.57.85,3.41.52,5.87-1.88,1.51-2.16,3.02-4.31,4.6-6.65,1.21-1.42,2.06-3,2.98-4.75,0,0,9.16-38.51,8.08-47.38-.48-6.63-.77-10.24-1.08-15.27-.42-5.28-1.57-10.28-.31-15.51.45-2.16,1.08-4.25,1.71-6.33,0,0,7.26-55.52,8.81-71.52l10.32-51.1,20.91-43.73c5.35-10.61,7.58-20.37,13.95-30.35,16.58-38.41,35.46-52.13,29.21-57.21,0,0-39.14-31.56-39.95-52.73,0,0-2.77-4.74-.04-9.38,0,0-46.8,26.3-39.66,62.11,0,0,10.03,3.47.6,38.38,0,0-10.95,14.52-16.83,33.32,0,0-3.38,25.93-.97,45.14.63,5.05-.49,10.16-3.12,14.52l-25.01,41.47c-11.85,19.65-4.16,47.83-4.16,47.83.39,3.77.6,7.48,1.24,11.14.68,4.11,1.8,8.18,2.74,12.17,0,0,4.91,17.09,6.02,26.57.21,1.76-.32,3.52-1.45,4.89-3.33,4.03-10.27,13.17-7.75,16.63Z"/>
    <path class="cls-6" d="m1758.62,528.26s-54.59-32.59-43.67-51.43c0,0-.55-5.22,4.32-8.33,0,0,80.53-79.51,149.08-44.8"/>
    <path class="cls-2" d="m1719.42,468.37s76.57-75.63,137.44-49.67l15.52,7.01,5.11.84s2.47,16.02-1.4,15.42c0,0-13.91-4.49-18.23-9.89,0,0-30.18-16.04-42.15,17.42,0,0-.37,25.16,15.19,36.79,0,0,1.87,1.07,4.85,1.11,0,0,9.26.88,10.42-4.77,0,0,.91-2.59-2.42-4.68,0,0-2.59-.91-3.86-2.41,0,0-4.58-3.87-4.64-4.86,0,0-.82-3.71,2.5-3.16,0,0,15.48,7.56,21.75,7.93,0,0,16.74,4.16,18.86,3.92l7.29,1.57,3.16.68s-1.72,5.6-9.18,9.61c0,0-17.26,7.41-37.57,7.57l-22.38-.15s-25.95-1-43.54,17.3c0,0-.76,2.46-7.26,6.69,0,0-3.98.79-7.8,6.36,0,0-1.77-.56-2.16-1.02,0,0-37.1-20.52-44.2-43.22-.68-.2-1.84-13.45,4.7-16.41Z"/>
    <path class="cls-3" d="m1859.25,475.16s17.57,4.23,18.73,3.77l10.86,2.43s20.88,4.78,27.6,4.77c0,0,8.94.17,10.81-.38,0,0,11.09-.36,20.48,4.61,0,0,22.22,12.45,30.9,14.14,0,0,44.88,15.98,64.73,14.66-.3.26,8.19.81,15.47,4.2l-.47.66s6.97,10.65,15.64,5.61l20.4-20.17s-16.64,3.26-30.05-3.99c0,0-18.25-6.25-24.06-12.18,0,0-22.93-20.91-64.38-24.01,0,0-18.77.15-25.45-3.76-1.37-.39-2.43-1.04-3.48-1.96-1.09-.37-2.18-.74-3.12-1.23-3.12-1.23-5.74-3.41-8.84-4.92-.13-.15-.26-.3-.41-.17-6.47-3.05-13.88-6.59-18.25-9.61-.56-.05-.96-.22-1.5-.54-.41-.17-.81-.35-1.22-.52-.96-.22-1.65-.41-2.48-.48-1.24-.24-2.63-.35-3.72-.72-.41-.17-.68-.2-.94-.5-9.84-1.22-26.2-3.12-30.26-3.03,0,0-10.77-3.54-18.23-9.89,0,0-29.71-16.7-42.15,17.42,0,0-2.13,20.96,12.55,34.9,0,0,3.33,3.67,6.48,3.09,0,0,1.98.29,2.61.09,0,0,2.16.46,6.34-1.25l15.4-11.04Z"/>
    <path class="cls-1" d="m1982.62,403.11s2.16-16.94-13.83-28.46c0,0-20.41-13.98-39.92-6.48,0,0,2.03-26.57-16.3-19.81,0,0-16.95-5.02-21.87,14.17,0,0-6.64,24.79,14.51,22.88l4.36,1.48s-5.02,3.23-5.01,9.95c0,0-1.16,14.18-5.4,16.49,0,0,4.86.54,6.26,2.19,0,0,4.18,3.7,9.81-1.86,0,0,5.93-10,17.98-6.78,0,0,4.64.58,10.65-6.06,0,0,3.96-5.32,14.52-6,0,0,1.84-.57,4.81.36,3.6,1.12,8.65.77,10.21,4.21l3.53,7.79c.28.02,3.01,3.1,4.51.84l.91-3.45.29-1.45Z"/>
  </g>
  <g class="cls-7">
    <path class="cls-4" d="m2308.41,602.55s-19.03.22-25.29,3.94c0,0-4.23-2.14-4.97-4.39,0,0-2.41-4.81-9.79-1.98,0,0-9.27,7.82-18.9-.03,0,0-4.73-2.39-13.43,2.75,0,0-19.56,8.08-30.21-9.81,0,0-9.94-7.12,11.25-27.99,0,0,6.34-1.66,14.62-7.57l13.1-5.74s11.12-3.44,13.42-1.49c0,0,7.44,3.66,14.27,10.53,0,0,3.39,8.44,7.94,9.64,0,0,4.66,3.45,6.41,2.46l.19-.06s1.37,1,1.74,1.51c0,0,23.58,13.02,26.26,14.22.06.19-2.43-1.7-6.62,14.01Z"/>
    <path class="cls-6" d="m2414.96,497.25s55.75,30.56,45.53,49.79c0,0,.74,5.2-4.01,8.48,0,0-77.55,82.41-147.33,50.25"/>
    <path class="cls-2" d="m2299.36,580.15s13.01-49.5,33.3-50.41l22.37-.68s25.97.04,42.88-18.89c0,0,.67-2.48,7.01-6.95,0,0,3.95-.94,7.56-6.64,0,0,1.79.5,2.19.94,0,0,37.82,19.15,45.76,41.56.69.17,2.33,13.37-4.09,16.57,0,0-73.74,78.39-135.52,54.68l-15.77-6.43-5.14-.65-.55-23.11Z"/>
    <path class="cls-1" d="m2202.21,584.59s-8.39,14.87,2.07,31.58c0,0,13.63,20.65,34.53,21.06,0,0-11.9,23.84,7.62,24.49,0,0,13.8,11.04,25.6-4.87,0,0,15.5-20.45-4.81-26.66l-3.48-3.01s5.87-1.1,8.39-7.32c0,0,6.42-12.7,11.23-13.24,0,0-4.29-2.33-4.97-4.39,0,0-2.47-5-9.79-1.98,0,0-9.27,7.03-19.21-.5,0,0-4.08-2.29-12.15,1.6,0,0-5.68,3.43-15.71.08,0,0-1.92-.16-4.32-2.14-2.91-2.4-7.72-3.98-7.86-7.75l-.33-8.55c-.25-.13-1.61-4.01-3.86-2.48l-2.15,2.85-.82,1.23Z"/>
    <g>
      <path class="cls-4" d="m2452.23,353.76c2.29,9.27-1.55,19.18-1.55,19.18-6.18,14.56-11.57,13.34-21.33,17.98-9.76,4.64-38.23,13.35-38.23,13.35l-52.85,11.69c.42.57.84,1.13,1.26,1.69,5.62,7.63,11.07,15.39,16.4,23.23,2.51,3.7,5,7.42,7.46,11.16,4.54-.62,8.83-.72,10.54-.76,0,0,16.23.19,27.91-8.17,0,0,28.29-16.57,33.83-21.67,0,0,12.28-14.2,28.38-25.23,3.27-2.24,7.24-2.92,11.19-2.7,2.7.15,6.05-2.36,5.72-6.21,0,0-.7-4.33-3.33-8.32l-18.2-31.59c-7.89-11.89-9.39-8.34-9.39-8.34-2.31,1.83,2.2,14.71,2.2,14.71Z"/>
      <path class="cls-4" d="m2338.65,415.96c-8.49,1.88-17.22,23.41-17.22,23.41-6.22,11.86-2.02,23.16-2.02,23.16,3.49,9.66,44.47,35.02,44.47,35.02,4.99,3.22,52.11,45.29,52.11,45.29,18.76,12.82,31,7.17,31,7.17,20.9-1.09,27.65-21.86,27.65-21.86,2.15-7.82-.4-20.96-7.68-26.51-8.3-6.32-14.46-7.46-24.63-12.28l-29.5-15.88c-5.46-2.94-11.2-5.32-17.14-7.09-11.48-3.43-30.6-9.53-32.43-12.64l.49-1.71-25.12-36.08Z"/>
    </g>
    <path class="cls-5" d="m2374.76,564.82s.89-9.46,1.55-17.56c.66-8.05,2.42-15.98,5.21-23.56l3.8-10.34s7.57-9.53,7.14-14.5l-38.09-50.35c-4.07-5.38-6.7-11.72-7.63-18.4l-1.48-10.64c-.23-1.66-1.44-3.01-3.06-3.42l-7.09-1.79c-3.13-.79-6.4.67-7.9,3.53l-4.54,8.65c-2.84,5.41-2.4,11.97,1.15,16.95l19.14,26.84,18.9,25.23c.81,1.08.64,2.59-.37,3.47h0c-3.1,2.7-5.71,5.93-7.7,9.53l-10.15,18.38-17.88,28.16s-18.48,27.82,14.16,43.73c0,0,25.35,10.61,34.84-33.92Z"/>
  </g>
</svg>
